<?xml version="1.0" encoding="utf-8"?><svg xml:space="preserve" viewBox="0 0 100 100" y="0" x="0" xmlns="http://www.w3.org/2000/svg" id="Layer_1" version="1.1" width="100px" height="100px" xmlns:xlink="http://www.w3.org/1999/xlink" style="width:100%;height:100%;background-size:initial;background-repeat-y:initial;background-repeat-x:initial;background-position-y:initial;background-position-x:initial;background-origin:initial;background-image:initial;background-color:rgb(255, 255, 255);background-clip:initial;background-attachment:initial;animation-play-state:paused" ><g class="ldl-scale" style="transform-origin:50% 50%;transform:rotate(0deg) scale(0.8, 0.8);animation-play-state:paused" ><path fill="#80aedd" d="M50 10c-17.415 0-32.223 11.133-37.715 26.667h75.43C82.223 21.133 67.415 10 50 10z" style="fill:rgb(128, 174, 221);animation-play-state:paused" ></path>
<path fill="#80aedd" d="M50 90c17.414 0 32.222-11.132 37.715-26.666h-75.43C17.778 78.868 32.586 90 50 90z" style="fill:rgb(128, 174, 221);animation-play-state:paused" ></path>
<path fill="#fff" d="M12.285 36.667A39.912 39.912 0 0 0 10 50c0 4.677.81 9.163 2.285 13.334h75.429A39.89 39.89 0 0 0 90 50c0-4.676-.81-9.162-2.285-13.333h-75.43z" style="fill:rgb(255, 255, 255);animation-play-state:paused" ></path>
<path fill="#f5bb00" d="M74.337 50.107c.047 0 .267-.022.267-.107-.062-.084-.198-.105-.26-.105l-14.089-.53a10.425 10.425 0 0 0-.067-.666 16.837 16.837 0 0 0 2.131-.659c1.296-.482 2.496-.935 4.074-.798 2.158.211 3.612-.623 4.691-1.218.415-.229.775-.428 1.107-.538.741-.245 1.308-.054 1.68.076.084.028.195.067.251.073-.022-.011-.043-.06-.109-.127-.229-.237-.952-.594-2.117-.415-.536.079-.939.267-1.404.484-.936.434-2 .919-4.467.729-1.786-.149-2.896.22-3.965.569a10.42 10.42 0 0 1-2.129.468 9.794 9.794 0 0 0-.21-.676l12.805-5.878c.043-.019.239-.122.208-.202-.031-.071-.226-.019-.282.002l-13.213 4.899a9.895 9.895 0 0 0-.321-.591c.628-.444 1.188-.93 1.716-1.42 1.014-.941 1.969-1.831 3.457-2.296 2.046-.64 3.097-1.955 3.863-2.914.298-.374.555-.698.822-.925.595-.51 1.187-.549 1.581-.574.09-.006.208-.014.26-.028-.025-.003-.062-.04-.149-.078-.301-.133-1.091-.189-2.114.426-.468.277-.766.606-1.116.984-.694.76-1.485 1.62-3.847 2.382-1.705.55-2.589 1.308-3.444 2.043-.53.455-1.108.871-1.79 1.246a10.205 10.205 0 0 0-.449-.544l9.581-10.33c.034-.034.174-.205.115-.265-.053-.067-.22.068-.26.109L56.809 42.3a10.66 10.66 0 0 0-.52-.429c.411-.651.743-1.314 1.043-1.968.574-1.257 1.119-2.445 2.313-3.441 1.649-1.376 2.114-2.995 2.455-4.178.13-.457.245-.851.403-1.164.353-.698.887-.961 1.24-1.133a1.85 1.85 0 0 0 .233-.129c-.031.009-.071-.011-.171-.014h-.006c-.335 0-1.076.253-1.786 1.204-.322.434-.474.851-.648 1.335-.353.967-.753 2.065-2.648 3.677-1.364 1.159-1.888 2.198-2.396 3.204-.321.632-.648 1.244-1.14 1.86a9.982 9.982 0 0 0-.66-.358l4.898-13.208c.025-.059.078-.256.006-.287-.019-.008-.047-.02-.112.056-.056.064-.09.143-.09.143l-5.882 12.814c-.211-.072-.424-.14-.642-.199.129-.757.182-1.494.208-2.211.05-1.384.099-2.691.822-4.071.995-1.902.806-3.575.67-4.798-.053-.473-.099-.882-.074-1.231.062-.781.453-1.228.713-1.522.062-.068.14-.158.167-.206-.022.016-.074.017-.161.051-.307.121-.905.637-1.197 1.798-.13.525-.112.969-.09 1.482.047 1.029.096 2.195-1.035 4.407-.818 1.595-.905 2.758-.992 3.881a10.433 10.433 0 0 1-.387 2.153c-.231-.03-.464-.056-.7-.071l-.528-14.083c0-.047-.022-.267-.109-.267-.078 0-.105.203-.105.26l-.531 14.089c-.226.014-.447.039-.669.067a16.95 16.95 0 0 0-.654-2.128c-.484-1.297-.939-2.524-.8-4.078.192-2.133-.62-3.606-1.215-4.681-.229-.419-.431-.781-.539-1.115-.245-.746-.053-1.308.074-1.68.028-.084.065-.195.074-.251-.016.022-.062.045-.127.107-.239.231-.592.936-.419 2.119.081.535.267.938.484 1.403.437.933.93 1.992.729 4.47-.143 1.786.22 2.892.57 3.962.217.663.373 1.361.46 2.133a9.888 9.888 0 0 0-.666.207l-5.88-12.808c-.019-.043-.105-.226-.202-.206-.081.034-.012.251 0 .282l4.9 13.214c-.202.099-.397.209-.592.321a16.747 16.747 0 0 0-1.416-1.713c-.942-1.014-1.832-1.972-2.297-3.46-.642-2.048-1.959-3.099-2.92-3.866-.372-.296-.694-.552-.924-.817-.508-.595-.546-1.189-.57-1.58a1.625 1.625 0 0 0-.031-.264c-.003.025-.04.064-.078.149-.13.304-.186 1.091.428 2.116.279.463.605.764.983 1.111.763.694 1.621 1.483 2.387 3.852.549 1.705 1.308 2.589 2.043 3.443.454.531.87 1.109 1.244 1.791a10.62 10.62 0 0 0-.544.449L32.87 32.714c-.034-.033-.189-.175-.264-.113-.016.104.068.215.109.257l9.588 10.337a10.66 10.66 0 0 0-.429.52 16.66 16.66 0 0 0-1.966-1.04c-1.259-.575-2.446-1.119-3.444-2.316-1.376-1.648-2.995-2.114-4.176-2.455-.456-.132-.849-.245-1.163-.403-.701-.355-.973-.91-1.138-1.242a1.45 1.45 0 0 0-.124-.229c.006.025-.012.073-.016.164-.006.329.239 1.079 1.203 1.793.434.324.853.476 1.336.651.967.352 2.065.752 3.677 2.646 1.159 1.364 2.198 1.89 3.203 2.398.634.32 1.246.648 1.861 1.14a9.982 9.982 0 0 0-.358.66l-13.206-4.897c-.043-.017-.251-.079-.288-.003-.031.078.164.181.202.197l12.812 5.881c-.073.212-.14.426-.2.644a16.5 16.5 0 0 0-2.214-.208c-1.383-.051-2.688-.099-4.071-.822-1.897-.994-3.568-.808-4.793-.67-.471.051-.874.095-1.231.073-.781-.06-1.228-.451-1.522-.711-.068-.059-.158-.138-.208-.164.016.019.019.073.053.16.121.305.636.902 1.798 1.194.524.133.967.118 1.482.09 1.026-.045 2.189-.096 4.405 1.039 1.597.817 2.756.904 3.878.989.7.053 1.406.168 2.156.387-.03.232-.056.465-.071.702l-14.083.53c-.047 0-.267.022-.267.107.062.084.198.105.26.105l14.089.53c.014.227.039.451.068.674-.752.169-1.456.4-2.132.651-1.293.482-2.496.933-4.074.798-2.152-.2-3.612.625-4.691 1.218-.415.229-.775.428-1.107.538-.744.239-1.308.051-1.68-.076-.084-.028-.195-.067-.251-.073.022.011.043.06.109.127.229.236.946.586 2.117.415.536-.079.939-.267 1.404-.484.936-.436 1.987-.932 4.467-.729 1.792.158 2.896-.219 3.965-.569a10.613 10.613 0 0 1 2.133-.457c.061.225.131.446.206.665l-12.805 5.878c-.043.019-.239.122-.208.202.034.071.223.02.282-.002l13.213-4.899c.099.202.209.397.321.591-.628.444-1.188.93-1.716 1.42-1.014.941-1.969 1.831-3.457 2.296-2.046.64-3.097 1.955-3.863 2.914-.298.374-.555.698-.822.925-.595.51-1.187.549-1.581.574-.09.006-.208.014-.26.028.025.003.062.04.149.078.304.132 1.094.188 2.114-.426.468-.277.766-.606 1.116-.984.694-.76 1.485-1.62 3.847-2.382 1.705-.55 2.589-1.308 3.444-2.043.53-.455 1.108-.871 1.79-1.246.144.187.293.368.449.544l-9.581 10.33c-.034.034-.174.205-.115.265.047.053.217-.071.26-.109L43.196 57.7c.169.149.342.291.52.429a16.636 16.636 0 0 0-1.043 1.968c-.574 1.257-1.119 2.445-2.313 3.441-1.649 1.376-2.114 2.995-2.455 4.178-.13.457-.245.851-.403 1.164-.353.698-.887.961-1.24 1.133a1.85 1.85 0 0 0-.233.129c.037-.003.074.012.171.014h.006c.335 0 1.076-.253 1.786-1.204.322-.434.474-.851.648-1.335.353-.967.753-2.065 2.648-3.677 1.364-1.159 1.888-2.198 2.396-3.204.321-.632.648-1.244 1.14-1.86.216.126.435.248.661.358l-4.898 13.208c-.025.059-.078.256-.006.287.016.002.043.017.112-.056.056-.064.09-.143.09-.143l5.882-12.814c.211.072.424.14.642.199a16.653 16.653 0 0 0-.208 2.211c-.05 1.384-.099 2.691-.822 4.071-.995 1.902-.806 3.575-.67 4.798.053.473.099.882.074 1.231-.062.781-.453 1.228-.713 1.522-.062.068-.14.158-.167.206.022-.015.074-.017.161-.051.307-.121.905-.637 1.197-1.798.13-.525.112-.969.09-1.482-.047-1.029-.096-2.195 1.035-4.407.818-1.595.905-2.758.992-3.881.053-.698.169-1.403.387-2.153.231.03.464.056.7.071l.528 14.083c0 .047.022.267.109.267.078 0 .105-.203.105-.26l.531-14.089c.226-.014.447-.039.669-.067.17.75.405 1.453.654 2.128.484 1.297.939 2.524.8 4.078-.192 2.133.62 3.606 1.215 4.681.229.419.431.781.539 1.115.245.746.053 1.308-.074 1.68a2.198 2.198 0 0 0-.074.251c.016-.022.062-.045.127-.107.239-.231.592-.936.419-2.119-.081-.535-.267-.938-.484-1.403-.437-.933-.93-1.992-.729-4.47.143-1.786-.22-2.892-.57-3.962a10.597 10.597 0 0 1-.46-2.133c.226-.061.447-.131.666-.207l5.88 12.808c.022.043.133.237.202.206.081-.034.012-.251 0-.282l-4.9-13.214c.202-.099.397-.209.591-.321.443.627.928 1.186 1.417 1.713.942 1.014 1.832 1.972 2.297 3.46.642 2.048 1.959 3.099 2.92 3.866.372.296.694.552.924.817.508.595.546 1.189.57 1.58.006.091.015.211.031.264.003-.025.04-.064.078-.149.13-.304.186-1.091-.428-2.116-.279-.463-.605-.764-.983-1.111-.763-.694-1.621-1.483-2.387-3.852-.549-1.705-1.308-2.589-2.043-3.443a10.46 10.46 0 0 1-1.244-1.791c.187-.144.367-.293.544-.449l10.333 9.581c.034.036.202.177.264.113.015-.104-.068-.215-.109-.257l-9.588-10.337c.149-.169.291-.342.429-.52.651.41 1.313.741 1.966 1.04 1.259.575 2.446 1.119 3.444 2.316 1.376 1.648 2.995 2.114 4.176 2.455.456.132.849.245 1.163.403.701.355.973.91 1.138 1.242.037.081.09.186.124.229-.006-.025.012-.073.016-.164.006-.329-.239-1.079-1.203-1.793-.434-.324-.853-.476-1.336-.651-.967-.352-2.065-.752-3.677-2.646-1.159-1.364-2.198-1.89-3.203-2.398-.634-.32-1.246-.648-1.861-1.14.126-.216.248-.434.358-.66l13.206 4.897c.047.019.257.084.288.003.031-.078-.164-.181-.202-.197L59.717 53.34c.073-.212.14-.426.2-.644a16.5 16.5 0 0 0 2.214.208c1.383.051 2.688.099 4.071.822 1.891.991 3.562.803 4.793.67.468-.054.871-.096 1.231-.073.781.06 1.228.451 1.522.711.068.059.158.138.208.164-.015-.019-.019-.073-.053-.16-.121-.305-.636-.902-1.798-1.194-.521-.132-.961-.113-1.482-.09-1.032.036-2.192.095-4.405-1.039-1.597-.817-2.756-.904-3.878-.989a10.37 10.37 0 0 1-2.156-.387c.03-.232.056-.465.071-.702l14.082-.53zm-7.595-.094l-6.45.236c.002-.084.025-.163.025-.248 0-.076-.021-.147-.022-.223l6.447.235zm-.412-3.188c-2.47-.302-3.894.923-6.189 1.428-.028-.162-.045-.325-.08-.484 2.625-.304 4.255-1.627 6.269-.944zm-.857-3.22l-5.871 2.687c-.057-.147-.104-.297-.168-.44l6.039-2.247zm-1.601-2.787c-2.397.666-3.244 2.342-5.169 3.685-.089-.14-.172-.282-.268-.418 2.308-1.285 3.316-3.128 5.437-3.267zm-2.024-2.648l-4.393 4.727a10.457 10.457 0 0 0-.331-.335l4.724-4.392zm-2.546-1.962c-1.958 1.531-2.101 3.401-3.362 5.378a9.57 9.57 0 0 0-.415-.273c1.644-2.073 1.869-4.163 3.777-5.105zm-2.883-1.671l-2.247 6.041c-.144-.064-.291-.115-.438-.172l2.685-5.869zm-3.103-.839c-1.222 2.163-.639 3.945-1.047 6.253-.159-.036-.321-.06-.483-.088.728-2.547.126-4.563 1.53-6.165zm-3.303-.44l.236 6.45c-.084-.002-.163-.025-.248-.025-.076 0-.147.021-.223.022l.235-6.447zm-3.188.412c-.302 2.47.924 3.894 1.428 6.189-.162.028-.325.045-.484.08-.303-2.625-1.627-4.255-.944-6.269zm-3.22.857l2.687 5.871c-.147.057-.297.104-.44.167l-2.247-6.038zm-2.787 1.601c.666 2.397 2.342 3.243 3.686 5.169-.14.089-.282.173-.418.268-1.286-2.308-3.129-3.316-3.268-5.437zm-2.648 2.024l4.727 4.393c-.114.109-.226.217-.335.331l-4.392-4.724zm-1.962 2.546c1.531 1.957 3.402 2.1 5.378 3.362a9.57 9.57 0 0 0-.273.415c-2.073-1.644-4.163-1.869-5.105-3.777zm-1.671 2.883l6.041 2.247c-.064.144-.115.291-.172.438l-5.869-2.685zm-.839 3.103c2.163 1.222 3.945.639 6.253 1.048-.036.159-.06.321-.088.483-2.547-.729-4.563-.127-6.165-1.531zm-.44 3.303l6.45-.236c-.002.085-.025.163-.025.248 0 .076.021.147.022.223l-6.447-.235zm.412 3.187c2.47.302 3.894-.923 6.189-1.427.028.162.046.325.081.484-2.626.304-4.256 1.627-6.27.943zm.857 3.221l5.871-2.687c.057.147.104.297.168.44l-6.039 2.247zm1.601 2.787c2.397-.666 3.243-2.342 5.169-3.686.089.14.172.282.268.418-2.308 1.285-3.316 3.129-5.437 3.268zm2.024 2.648l4.393-4.727c.109.114.218.226.332.335l-4.725 4.392zm2.546 1.962c1.958-1.531 2.101-3.401 3.362-5.378.135.096.274.184.414.273-1.643 2.073-1.868 4.163-3.776 5.105zm2.883 1.671l2.247-6.041c.144.064.291.115.438.172l-2.685 5.869zm3.103.839c1.222-2.163.639-3.945 1.047-6.253.159.036.321.06.483.089-.728 2.546-.126 4.562-1.53 6.164zm3.303.44l-.236-6.45c.084.002.163.025.248.025.076 0 .147-.021.223-.022l-.235 6.447zm3.188-.412c.302-2.47-.924-3.893-1.428-6.189.162-.028.325-.045.484-.08.303 2.625 1.627 4.255.944 6.269zm3.22-.857l-2.687-5.871c.147-.057.297-.104.44-.168l2.247 6.039zm2.787-1.601c-.666-2.396-2.342-3.243-3.686-5.169.14-.089.282-.173.418-.268 1.286 2.308 3.129 3.316 3.268 5.437zm2.648-2.024l-4.727-4.393c.114-.109.226-.217.335-.331l4.392 4.724zm1.962-2.546c-1.531-1.958-3.401-2.101-5.378-3.362a9.57 9.57 0 0 0 .273-.415c2.073 1.644 4.163 1.869 5.105 3.777zm1.671-2.883l-6.041-2.247c.064-.144.115-.292.172-.439l5.869 2.686zm.839-3.103c-2.163-1.222-3.945-.639-6.253-1.048.036-.159.06-.321.088-.483 2.547.729 4.563.127 6.165 1.531z" style="fill:rgb(245, 187, 0);animation-play-state:paused" ></path>
<path fill="#903410" d="M51.792 48.847c.025.019.061.03.088.048.011.008.025.012.036.02.084.054.171.103.267.146.02.009.035.022.055.03.066.027.115.069.186.091.073.022.161.019.239.035.134.029.271.05.414.061.096.008.182.034.281.033l.001-.001c.288-.003.583-.051.873-.129.05-.014.098-.022.147-.038.132-.042.249-.126.375-.185s.255-.107.372-.184c.03-.019.065-.026.094-.046.015-.01.033-.013.048-.024-.105-.113-.248-.169-.37-.26a2.546 2.546 0 0 0-1.079-.474l-.051-.011c-.059-.009-.117-.032-.176-.037-.071-.006-.139-.044-.21-.044-.009 0-.016.006-.025.006-.241.003-.464.081-.686.159a1.85 1.85 0 0 0-.558.337c-.103.084-.209.161-.294.27-.007.009-.018.014-.025.023-.011.015-.028.02-.039.035-.022.031-.06.041-.081.074.017.016.047.021.066.036.015.012.037.017.052.029zm1.936-.778c.453.068.82.262.948.478.016.027.049.053.057.08-.052.057-.12.078-.176.127a1.848 1.848 0 0 1-.261.188 1.8 1.8 0 0 1-.373.185c-.081.027-.164.038-.247.053.044-.025.102-.023.138-.057.057-.052.067-.127.104-.196.007-.014.011-.028.017-.042.023-.051.053-.096.063-.152.007-.04.044-.065.044-.107 0-.241-.145-.417-.332-.54-.017-.011-.038-.014-.056-.023.026.002.05.002.074.006zm-1.608.592c.049-.061.109-.099.163-.149.18-.166.366-.294.583-.36-.042.044-.04.115-.07.169-.053.097-.125.184-.126.303v.001c0 .023.022.036.024.058.005.054.042.093.059.143a.59.59 0 0 0 .024.058c.022.048.028.102.06.144.013.017.01.043.024.059.064.069.159.084.247.122-.129-.013-.258-.024-.383-.06a2.048 2.048 0 0 1-.203-.074l-.003-.001c-.063-.025-.117-.065-.177-.096-.073-.038-.148-.071-.216-.118-.044-.03-.099-.043-.141-.077.037-.057.095-.072.135-.122z" style="fill:rgb(144, 52, 16);animation-play-state:paused" ></path>
<path fill="#903410" d="M47.862 48.315c-.161-.099-.31-.196-.486-.259a2.528 2.528 0 0 0-.71-.149c-.046-.003-.09-.028-.135-.028-.047 0-.088.028-.134.031-.049.003-.092.026-.14.032-.028.004-.055.014-.083.019-.378.063-.707.23-.992.493-.111.103-.246.171-.334.306-.004.006-.012.008-.016.015-.003.004-.007.005-.009.009.086.077.218.117.326.178.112.064.209.14.34.186.117.041.247.053.375.078.235.047.47.083.726.074.012.001.019.013.031.013.025 0 .04-.024.065-.027.079-.005.158-.025.237-.035.132-.017.262-.026.393-.058.075-.019.147-.028.221-.053.053-.017.099-.055.152-.075.012-.005.023-.013.035-.017.12-.047.232-.109.346-.171l.047-.023.008-.004c.04-.023.085-.036.124-.061.038-.024.084-.033.121-.06.015-.01.033-.013.047-.023-.025-.027-.062-.036-.088-.062-.053-.053-.123-.079-.181-.127a2.271 2.271 0 0 0-.286-.202zm-2.07.821c-.126-.042-.233-.121-.349-.186-.102-.057-.215-.095-.306-.167.006-.01.017-.011.023-.021.064-.097.157-.137.233-.213a1.54 1.54 0 0 1 .825-.444c-.163.126-.283.298-.283.519 0 .041.037.067.044.106.007.04.031.07.044.107.011.031.021.06.037.089.036.068.047.143.103.195.075.068.18.085.279.116a2.132 2.132 0 0 1-.65-.101zm2.042-.475c-.085.088-.186.135-.28.202l-.01.007c-.051.036-.099.08-.152.11-.049.027-.088.077-.138.1l-.027.013c-.052.022-.108.018-.161.035.018-.016.036-.025.053-.043.018-.02.015-.053.031-.075.027-.037.033-.084.053-.127.011-.025.022-.048.031-.074.014-.045.048-.079.053-.127.002-.022.024-.035.024-.057 0-.018-.018-.029-.02-.047a.652.652 0 0 0-.124-.298.6.6 0 0 0-.212-.204c.293.054.542.162.713.293a.639.639 0 0 1 .139.149l.001.001c.026.036.066.071.076.108-.016.015-.036.019-.05.034z" style="fill:rgb(144, 52, 16);animation-play-state:paused" ></path>
<path fill="#903410" d="M74.87 49.684c-.177-.178-.481-.186-.518-.186h-.003l-13.628-.513a20.081 20.081 0 0 0 1.732-.574c1.252-.467 2.446-.911 3.9-.773 2.263.192 3.798-.648 4.92-1.268.397-.22.741-.409 1.039-.507.617-.202 1.085-.042 1.426.073.251.087.577.203.725-.104.071-.149.04-.333-.084-.502-.316-.439-1.249-.818-2.542-.632-.595.088-1.042.296-1.516.518-.893.414-1.91.888-4.269.691-1.857-.146-3.01.226-4.12.589-.636.209-1.249.411-1.981.498L72.68 41.15c.034-.012.319-.136.419-.374a.434.434 0 0 0-.003-.341.43.43 0 0 0-.239-.243c-.242-.102-.53.016-.552.026l-12.779 4.738c.491-.383.94-.787 1.374-1.19.98-.91 1.904-1.77 3.305-2.209 2.164-.676 3.255-2.045 4.055-3.046.285-.358.533-.667.772-.871.493-.423.986-.456 1.345-.479.273-.017.611-.039.629-.374.006-.098-.022-.284-.27-.432-.468-.282-1.476-.279-2.592.391-.515.308-.849.673-1.203 1.057-.663.722-1.414 1.542-3.68 2.272-1.78.575-2.694 1.361-3.578 2.119-.508.436-.998.857-1.637 1.217l9.521-10.266c.025-.025.242-.248.242-.505a.441.441 0 0 0-.133-.316.426.426 0 0 0-.313-.133c-.257 0-.481.215-.502.236l-9.989 9.265a20.83 20.83 0 0 0 .813-1.623c.558-1.215 1.082-2.362 2.207-3.303 1.742-1.454 2.226-3.14 2.582-4.371.127-.437.236-.815.375-1.094.295-.58.738-.798 1.06-.958.245-.119.549-.27.44-.586-.056-.157-.205-.265-.412-.298-.53-.07-1.466.307-2.248 1.355-.36.481-.527.944-.707 1.434-.335.922-.713 1.967-2.527 3.509-1.426 1.214-1.972 2.288-2.499 3.328-.301.597-.592 1.175-1.048 1.753l4.87-13.134c.012-.031.13-.321.031-.558a.435.435 0 0 0-.242-.24c-.192-.084-.403-.026-.561.161a.961.961 0 0 0-.155.245l-5.686 12.386c.077-.617.109-1.219.13-1.81.05-1.338.096-2.6.778-3.902 1.051-2.007.853-3.751.71-5.024-.05-.454-.096-.845-.071-1.156.05-.649.378-1.02.614-1.291.18-.205.406-.459.183-.708-.109-.124-.291-.161-.496-.118-.53.13-1.243.845-1.559 2.111-.146.581-.124 1.074-.102 1.595.043.98.093 2.091-.992 4.21-.853 1.666-.946 2.868-1.035 4.03-.05.665-.099 1.31-.295 2.015l-.527-13.993c.002-.318-.156-.657-.503-.657a.444.444 0 0 0-.316.127c-.18.181-.186.493-.186.521l-.513 13.619a20.606 20.606 0 0 0-.572-1.719c-.468-1.256-.908-2.44-.775-3.905.202-2.254-.645-3.788-1.265-4.909-.22-.401-.412-.747-.508-1.046-.205-.618-.043-1.087.071-1.428.087-.257.198-.577-.102-.724-.087-.042-.273-.087-.505.082-.437.322-.822 1.256-.629 2.547.087.592.295 1.039.515 1.511.415.89.884 1.896.691 4.272-.149 1.865.226 3.01.589 4.117.211.636.412 1.251.499 1.981L41.15 27.315c-.013-.03-.137-.315-.373-.415a.437.437 0 0 0-.344.002c-.319.133-.335.507-.217.794l4.737 12.776a21.167 21.167 0 0 0-1.188-1.37c-.908-.98-1.77-1.905-2.207-3.306-.676-2.165-2.049-3.26-3.051-4.058-.357-.284-.667-.53-.868-.766-.425-.494-.456-.987-.481-1.347-.015-.271-.037-.611-.372-.631h-.022c-.102 0-.273.04-.412.27-.282.463-.279 1.474.391 2.593.307.513.673.846 1.057 1.198.722.663 1.544 1.414 2.276 3.681.574 1.781 1.361 2.696 2.117 3.581.437.507.859.998 1.218 1.638L33.14 32.431c-.22-.223-.574-.35-.818-.11a.437.437 0 0 0-.133.316c0 .257.217.481.236.499l9.27 9.994a20.533 20.533 0 0 0-1.625-.814c-1.218-.556-2.365-1.082-3.308-2.209-1.454-1.742-3.137-2.227-4.368-2.582-.437-.126-.815-.234-1.094-.375-.583-.295-.8-.739-.961-1.063-.121-.243-.273-.541-.583-.437-.158.054-.267.206-.298.415-.084.536.304 1.466 1.352 2.245.481.358.946.527 1.435.705.924.335 1.969.716 3.509 2.53 1.212 1.425 2.288 1.969 3.327 2.496.598.302 1.175.594 1.752 1.048L27.704 40.22c-.301-.122-.67-.105-.8.212a.435.435 0 0 0-.003.343c.099.237.384.361.409.37l12.389 5.687a20.808 20.808 0 0 0-1.814-.13c-1.336-.05-2.601-.095-3.9-.775-2.009-1.056-3.745-.857-5.022-.713-.453.05-.846.096-1.156.07-.651-.048-1.02-.375-1.293-.612-.205-.181-.459-.405-.71-.181-.071.065-.183.217-.115.498.13.527.843 1.237 2.108 1.555.58.146 1.076.122 1.597.102.98-.034 2.086-.091 4.21.995 1.665.853 2.868.944 4.03 1.032.667.051 1.311.099 2.021.298l-13.997.527c-.317-.002-.658.156-.658.502 0 .122.043.233.13.316.177.178.481.186.518.186h.003l13.628.513c-.604.164-1.174.366-1.732.574-1.252.465-2.455.919-3.9.773-2.263-.205-3.798.646-4.92 1.268-.397.22-.741.409-1.039.507-.614.206-1.082.043-1.426-.073-.254-.088-.583-.205-.725.104-.071.149-.04.333.084.502.316.44 1.249.822 2.542.632.595-.088 1.042-.296 1.516-.518.89-.415 1.907-.893 4.269-.691 1.863.158 3.013-.225 4.12-.589.636-.209 1.249-.411 1.981-.498L27.32 58.85c-.035.013-.32.137-.42.375a.434.434 0 0 0 .003.341.43.43 0 0 0 .239.243c.071.029.146.04.217.04a.94.94 0 0 0 .335-.067l12.779-4.738c-.491.383-.94.787-1.374 1.19-.98.91-1.904 1.77-3.305 2.209-2.164.676-3.255 2.045-4.055 3.046-.285.358-.533.667-.772.871-.493.423-.986.456-1.345.479-.273.017-.611.039-.629.374-.006.098.022.284.27.432.468.282 1.479.279 2.592-.391.515-.308.849-.673 1.203-1.057.663-.722 1.414-1.542 3.68-2.272 1.78-.575 2.694-1.361 3.578-2.119.508-.436.998-.857 1.637-1.217l-9.521 10.266c-.025.025-.242.248-.242.505 0 .121.047.229.133.316a.426.426 0 0 0 .313.133c.257 0 .481-.215.502-.236l9.989-9.265a20.83 20.83 0 0 0-.813 1.623c-.558 1.215-1.082 2.362-2.207 3.303-1.742 1.454-2.226 3.141-2.582 4.371-.127.437-.236.815-.375 1.094-.295.58-.738.798-1.06.958-.245.119-.549.27-.44.586.056.157.205.265.412.298.53.078 1.466-.304 2.248-1.355.36-.481.527-.944.707-1.434.335-.922.713-1.967 2.527-3.509 1.426-1.214 1.972-2.288 2.499-3.328.301-.597.592-1.175 1.048-1.753l-4.87 13.134c-.012.031-.13.321-.031.558.047.112.13.194.242.24a.448.448 0 0 0 .177.036.51.51 0 0 0 .384-.197.961.961 0 0 0 .155-.245l5.686-12.386a20.337 20.337 0 0 0-.13 1.81c-.05 1.338-.096 2.6-.778 3.902-1.051 2.007-.853 3.751-.71 5.024.05.454.096.845.071 1.156-.05.649-.378 1.02-.614 1.291-.18.205-.406.459-.183.708.115.126.298.166.496.118.53-.13 1.243-.845 1.559-2.111.146-.581.124-1.074.102-1.595-.043-.98-.093-2.091.992-4.21.853-1.666.946-2.868 1.035-4.03.05-.665.099-1.31.295-2.015l.527 13.993c-.001.318.157.657.504.657a.444.444 0 0 0 .316-.127c.18-.181.186-.493.186-.521l.513-13.619c.165.598.366 1.166.572 1.719.468 1.256.908 2.44.775 3.905-.202 2.254.645 3.788 1.265 4.909.22.401.412.747.508 1.046.205.618.043 1.087-.071 1.428-.087.257-.198.577.102.724.04.02.099.04.174.04.09 0 .205-.029.332-.122.437-.322.822-1.256.629-2.547-.087-.592-.295-1.039-.515-1.511-.415-.89-.884-1.896-.691-4.272.149-1.865-.226-3.01-.589-4.117-.211-.636-.412-1.251-.499-1.981l5.844 12.731c.012.031.136.316.372.415.112.045.22.047.344-.002.319-.133.335-.507.217-.794l-4.737-12.776c.382.489.786.937 1.188 1.37.908.98 1.77 1.905 2.207 3.306.676 2.165 2.049 3.26 3.051 4.058.357.284.667.53.868.766.425.494.456.987.481 1.347.015.271.037.611.372.631h.022c.102 0 .273-.04.412-.27.282-.463.279-1.474-.391-2.593-.307-.513-.673-.846-1.057-1.198-.722-.663-1.544-1.414-2.276-3.681-.574-1.781-1.361-2.696-2.117-3.581-.437-.507-.859-.998-1.218-1.638l10.271 9.524c.223.226.577.357.818.11a.437.437 0 0 0 .133-.316c0-.257-.217-.481-.236-.499l-9.27-9.994c.542.308 1.087.568 1.625.814 1.218.556 2.365 1.082 3.308 2.209 1.454 1.742 3.137 2.227 4.368 2.582.437.126.815.234 1.094.375.583.295.8.739.961 1.063.102.208.223.46.456.46.04 0 .081-.008.127-.023.158-.054.267-.206.298-.415.084-.536-.304-1.466-1.352-2.245-.481-.358-.946-.527-1.435-.705-.924-.335-1.969-.716-3.509-2.53-1.212-1.425-2.288-1.969-3.327-2.496-.598-.302-1.175-.594-1.752-1.048l13.129 4.869c.304.126.67.104.8-.212a.435.435 0 0 0 .003-.343c-.099-.237-.384-.361-.409-.37l-12.389-5.687c.618.077 1.222.108 1.814.13 1.336.05 2.601.095 3.9.775 2.009 1.054 3.748.86 5.022.713.45-.05.849-.091 1.156-.07.651.048 1.02.375 1.293.612.143.127.31.274.484.274a.331.331 0 0 0 .226-.093c.071-.065.183-.217.115-.498-.13-.527-.843-1.237-2.108-1.555-.58-.147-1.082-.124-1.597-.102-.967.04-2.083.093-4.21-.995-1.665-.853-2.868-.944-4.03-1.032-.667-.051-1.311-.099-2.021-.298l13.997-.527c.317.002.658-.156.658-.502a.426.426 0 0 0-.13-.316zm-12.813-2.812c1.07-.349 2.179-.718 3.965-.569 2.468.191 3.531-.295 4.467-.729.465-.217.868-.405 1.404-.484 1.166-.178 1.888.178 2.117.415.065.067.087.116.109.127-.056-.006-.167-.045-.251-.073-.372-.13-.939-.321-1.68-.076-.332.11-.691.308-1.107.538-1.079.595-2.533 1.429-4.691 1.218-1.578-.136-2.778.316-4.074.798-.718.266-1.452.527-2.258.698-.019-.148-.02-.301-.045-.447 2.377-.484 3.796-1.772 6.315-1.465-2.048-.695-3.694.692-6.4.964-.032-.145-.092-.278-.131-.421a10.022 10.022 0 0 0 2.26-.494zm10.392-6.286c.056-.02.251-.073.282-.002.031.079-.164.183-.208.202l-12.926 5.933c-.042-.123-.069-.252-.116-.372l5.991-2.742-6.164 2.293c-.057-.128-.138-.241-.199-.366l13.34-4.946zm-12.507 1.91c.856-.735 1.739-1.493 3.444-2.043 2.362-.763 3.153-1.623 3.847-2.382.35-.378.648-.707 1.116-.984 1.023-.615 1.814-.56 2.114-.426.087.037.124.074.149.078a1.913 1.913 0 0 1-.26.028c-.394.025-.986.064-1.581.574-.267.228-.524.552-.822.925-.766.96-1.817 2.274-3.863 2.914-1.488.465-2.443 1.355-3.457 2.296-.56.519-1.143 1.041-1.82 1.506-.074-.129-.134-.267-.213-.392 2.011-1.356 2.83-3.09 5.275-3.77-2.16.142-3.15 2.055-5.549 3.342-.087-.123-.195-.228-.286-.347a10.32 10.32 0 0 0 1.906-1.319zm7.196-9.784c.04-.04.208-.175.26-.109.059.06-.081.231-.115.265l-9.672 10.429c-.086-.098-.159-.207-.249-.301l4.485-4.825-4.823 4.483c-.1-.096-.216-.172-.32-.264l10.434-9.678zm-10.823 6.55c.508-1.006 1.032-2.045 2.396-3.204 1.894-1.612 2.294-2.71 2.648-3.677.174-.484.326-.901.648-1.335.71-.952 1.451-1.204 1.786-1.204h.006c.099.003.14.023.171.014-.043.034-.152.088-.233.129-.353.172-.887.436-1.24 1.133-.158.313-.273.707-.403 1.164-.341 1.183-.806 2.801-2.455 4.178-1.194.997-1.739 2.184-2.313 3.441-.318.694-.658 1.399-1.106 2.088-.118-.092-.223-.198-.345-.284 1.335-2.021 1.43-3.934 3.427-5.497-1.942.958-2.125 3.106-3.851 5.215-.113-.072-.237-.124-.353-.192.544-.653.877-1.299 1.217-1.969zm2.902-11.794s.034-.079.09-.143c.065-.076.093-.064.112-.056.071.031.019.228-.006.287l-4.944 13.332c-.117-.058-.224-.133-.343-.186l2.294-6.165-2.741 5.988c-.129-.05-.267-.079-.398-.124l5.936-12.933zm-7.493 10.196c.087-1.124.174-2.286.992-3.881 1.132-2.212 1.082-3.378 1.035-4.407-.022-.513-.04-.956.09-1.482.291-1.161.89-1.677 1.197-1.798.087-.034.14-.036.161-.051a1.68 1.68 0 0 1-.167.206c-.26.295-.651.741-.713 1.522-.025.349.022.758.074 1.231.136 1.223.326 2.896-.67 4.798-.722 1.38-.772 2.686-.822 4.071-.028.759-.072 1.538-.221 2.343-.144-.04-.28-.099-.426-.133.458-2.375-.184-4.178 1.062-6.384-1.427 1.628-.774 3.682-1.562 6.29-.146-.026-.3-.026-.448-.045.245-.8.361-1.541.418-2.28zm-1.829-12.007c0-.057.028-.26.105-.26.087 0 .109.22.109.267l.533 14.213c-.131-.008-.256-.036-.388-.039l-.24-6.579-.24 6.577c-.141.003-.274.033-.414.042l.535-14.221zm-3.023 12.285c-.35-1.07-.713-2.176-.57-3.962.202-2.479-.291-3.537-.729-4.47-.217-.465-.403-.868-.484-1.403-.174-1.183.18-1.888.419-2.119.065-.062.112-.085.127-.107-.009.056-.047.167-.074.251-.127.372-.319.935-.074 1.68.109.333.31.696.539 1.115.595 1.076 1.407 2.548 1.215 4.681-.14 1.555.316 2.781.8 4.078.264.714.522 1.451.693 2.253-.147.019-.299.02-.444.045-.484-2.376-1.772-3.795-1.464-6.314-.695 2.048.691 3.693.964 6.398-.148.033-.284.094-.43.134a10.428 10.428 0 0 0-.488-2.26zM40.585 27.55c-.012-.031-.081-.248 0-.282.096-.02.183.163.202.206l5.934 12.927c-.123.042-.253.07-.374.116l-2.742-5.99 2.293 6.163c-.128.057-.241.137-.366.199L40.585 27.55zm1.913 12.508c-.735-.854-1.494-1.738-2.043-3.443-.766-2.369-1.625-3.158-2.387-3.852-.378-.347-.704-.648-.983-1.111-.614-1.025-.558-1.812-.428-2.116.037-.085.074-.124.078-.149.016.053.025.172.031.264.025.391.062.984.57 1.58.229.265.552.521.924.817.961.767 2.279 1.818 2.92 3.866.465 1.488 1.355 2.446 2.297 3.46.518.558 1.038 1.14 1.502 1.816-.129.074-.266.134-.392.213-1.356-2.01-3.09-2.829-3.77-5.274.142 2.16 2.055 3.15 3.342 5.549-.123.087-.228.195-.347.287a10.266 10.266 0 0 0-1.314-1.907zm-9.788-7.197c-.04-.042-.124-.153-.109-.257.074-.062.229.081.264.113l10.432 9.672c-.098.086-.207.159-.301.249l-4.825-4.485 4.484 4.824c-.096.1-.173.216-.264.32L32.71 32.861zm6.551 10.824c-1.004-.508-2.043-1.034-3.203-2.398-1.612-1.894-2.71-2.294-3.677-2.646-.484-.175-.902-.327-1.336-.651-.964-.715-1.209-1.465-1.203-1.793.003-.091.022-.14.016-.164.034.043.087.149.124.229.164.332.437.887 1.138 1.242.313.158.707.271 1.163.403 1.181.341 2.799.808 4.176 2.455.998 1.197 2.186 1.741 3.444 2.316.693.318 1.398.657 2.086 1.104-.091.118-.198.222-.284.344-2.021-1.336-3.935-1.43-5.497-3.427.959 1.942 3.107 2.125 5.215 3.851-.072.113-.124.237-.192.353-.652-.546-1.298-.879-1.97-1.218zm-11.79-2.903c-.037-.015-.233-.119-.202-.197.037-.076.245-.014.288.003l13.332 4.944c-.058.117-.133.224-.187.344l-6.166-2.294 5.989 2.741c-.05.128-.078.265-.123.396l-12.931-5.937zm10.19 7.493c-1.122-.085-2.282-.172-3.878-.989-2.217-1.135-3.379-1.084-4.405-1.039-.515.028-.958.043-1.482-.09-1.163-.291-1.677-.888-1.798-1.194-.034-.087-.037-.141-.053-.16.05.026.14.105.208.164.295.26.741.651 1.522.711.357.022.76-.022 1.231-.073 1.225-.138 2.896-.324 4.793.67 1.383.722 2.688.77 4.071.822.762.028 1.541.072 2.347.221-.04.144-.099.28-.133.427-2.376-.459-4.179.184-6.385-1.062 1.629 1.428 3.683.774 6.292 1.563-.026.146-.026.298-.045.446a10.29 10.29 0 0 0-2.285-.417zm-12.004 1.83c-.062 0-.198-.022-.26-.105 0-.085.22-.107.267-.107l14.214-.534c-.008.131-.036.256-.039.388l-6.581.24 6.578.24c.003.141.033.274.042.413l-14.221-.535zm12.286 3.023c-1.07.35-2.173.727-3.965.569-2.48-.203-3.531.293-4.467.729-.465.217-.868.405-1.404.484-1.172.171-1.888-.18-2.117-.415-.065-.067-.087-.116-.109-.127.056.006.167.045.251.073.372.127.936.315 1.68.076.332-.11.691-.308 1.107-.538 1.079-.594 2.539-1.418 4.691-1.218 1.578.135 2.781-.316 4.074-.798.716-.266 1.454-.52 2.258-.69.018.145.02.295.044.439-2.377.484-3.796 1.772-6.315 1.464 2.048.695 3.694-.691 6.4-.964.033.149.095.286.135.433-.831.082-1.559.252-2.263.483zm-10.392 6.286c-.059.022-.248.073-.282.002-.031-.079.164-.183.208-.202l12.926-5.933c.042.123.069.252.116.372l-5.991 2.742 6.164-2.293c.057.128.138.241.199.366l-13.34 4.946zm12.507-1.91c-.856.735-1.739 1.493-3.444 2.043-2.362.763-3.153 1.623-3.847 2.382-.35.378-.648.707-1.116.984-1.02.614-1.811.558-2.114.426-.087-.037-.124-.074-.149-.078.053-.014.171-.022.26-.028.394-.025.986-.064 1.581-.574.267-.228.524-.552.822-.925.766-.96 1.817-2.274 3.863-2.914 1.488-.465 2.443-1.355 3.457-2.296.56-.519 1.143-1.041 1.82-1.506.074.129.134.267.213.392-2.011 1.356-2.829 3.09-5.274 3.77 2.16-.142 3.15-2.055 5.549-3.342.087.123.195.228.287.347-.74.394-1.347.836-1.908 1.319zm-7.196 9.784c-.043.037-.214.161-.26.109-.059-.06.081-.231.115-.265l9.672-10.429c.086.098.159.207.249.301l-4.485 4.825 4.823-4.483c.1.096.216.172.32.264l-10.434 9.678zm10.823-6.55c-.508 1.006-1.032 2.045-2.396 3.204-1.894 1.612-2.294 2.71-2.648 3.677-.174.484-.326.901-.648 1.335-.71.952-1.451 1.204-1.786 1.204h-.006c-.096-.002-.133-.017-.171-.014.043-.034.152-.088.233-.129.353-.172.887-.436 1.24-1.133.158-.313.273-.707.403-1.164.341-1.183.806-2.801 2.455-4.178 1.194-.997 1.739-2.184 2.313-3.441.318-.694.658-1.399 1.106-2.088.118.092.223.198.345.284-1.335 2.021-1.43 3.934-3.427 5.497 1.942-.958 2.125-3.107 3.851-5.215.113.072.237.124.353.192-.545.653-.877 1.299-1.217 1.969zm-2.902 11.794s-.034.079-.09.143c-.068.073-.096.057-.112.056-.071-.031-.019-.228.006-.287l4.944-13.332c.117.058.224.133.343.186l-2.294 6.165 2.741-5.988c.129.05.267.079.398.124l-5.936 12.933zm7.493-10.196c-.087 1.124-.174 2.286-.992 3.881-1.132 2.212-1.082 3.378-1.035 4.407.022.513.04.956-.09 1.482-.291 1.161-.89 1.677-1.197 1.798-.087.034-.14.036-.161.051a1.68 1.68 0 0 1 .167-.206c.26-.295.651-.741.713-1.522.025-.349-.022-.758-.074-1.231-.136-1.223-.326-2.896.67-4.798.722-1.38.772-2.686.822-4.071.028-.759.072-1.538.221-2.343.144.04.28.099.426.133-.458 2.375.184 4.178-1.062 6.384 1.427-1.628.774-3.682 1.562-6.29.146.026.3.026.448.045-.245.8-.361 1.541-.418 2.28zm1.829 12.007c0 .057-.028.26-.105.26-.087 0-.109-.22-.109-.267l-.533-14.213c.131.008.256.036.388.039l.24 6.579.24-6.577c.141-.003.274-.033.414-.042l-.535 14.221zm3.023-12.285c.35 1.07.713 2.176.57 3.962-.202 2.479.291 3.537.729 4.47.217.465.403.868.484 1.403.174 1.183-.18 1.888-.419 2.119-.065.062-.112.085-.127.107.009-.056.047-.167.074-.251.127-.372.319-.935.074-1.68-.109-.333-.31-.696-.539-1.115-.595-1.076-1.407-2.548-1.215-4.681.14-1.555-.316-2.781-.8-4.078-.264-.714-.522-1.451-.693-2.253.147-.019.299-.02.444-.045.484 2.376 1.772 3.795 1.464 6.314.695-2.048-.691-3.694-.964-6.398.148-.033.284-.094.43-.134.082.829.258 1.557.488 2.26zm6.287 10.392c.012.031.081.248 0 .282-.068.031-.18-.163-.202-.206l-5.934-12.927c.123-.042.253-.07.374-.116l2.742 5.99-2.293-6.163c.128-.057.241-.137.366-.199l4.947 13.339zm-1.913-12.508c.735.854 1.494 1.738 2.043 3.443.766 2.369 1.625 3.158 2.387 3.852.378.347.704.648.983 1.111.614 1.025.558 1.812.428 2.116-.037.085-.074.124-.078.149a1.611 1.611 0 0 1-.031-.264c-.025-.391-.062-.984-.57-1.58-.229-.265-.552-.521-.924-.817-.961-.767-2.279-1.818-2.92-3.866-.465-1.488-1.355-2.446-2.297-3.46-.518-.558-1.038-1.14-1.502-1.816.129-.074.266-.134.392-.213 1.356 2.01 3.09 2.829 3.77 5.274-.142-2.16-2.055-3.15-3.342-5.548.123-.087.228-.195.347-.287a10.29 10.29 0 0 0 1.314 1.906zm-1.193-2.696c-.05.044-.103.084-.154.127a5.21 5.21 0 0 1-.077.063c-.048.04-.095.081-.144.119-.11.087-.21.185-.323.267a9.643 9.643 0 0 1-.476.32c-.13.082-.272.144-.406.221l-.096.052a3.02 3.02 0 0 1-.078.043l-.098.053-.078.042c-.033.017-.065.037-.098.053-.125.062-.239.142-.367.199-.158.071-.322.126-.485.188-.122.047-.251.075-.375.116-.063.021-.127.039-.19.059l-.096.03c-.06.018-.12.039-.181.056-.134.038-.262.092-.399.124-.186.043-.372.076-.562.109-.15.026-.307.028-.46.047l-.109.011-.089.009-.111.011-.088.009c-.037.003-.074.009-.111.011-.14.01-.273.038-.414.042-.084.002-.163.025-.247.025-.093 0-.18-.025-.273-.028-.132-.004-.258-.03-.389-.039-.067-.005-.133-.014-.2-.02l-.098-.01c-.062-.006-.124-.011-.186-.019-.138-.017-.281-.02-.417-.042-.19-.031-.38-.054-.567-.096-.152-.034-.292-.096-.441-.137-.036-.01-.07-.022-.106-.033l-.085-.026-.107-.033-.083-.026c-.035-.011-.071-.021-.106-.033-.132-.044-.27-.074-.399-.124-.163-.063-.325-.122-.483-.193-.12-.054-.227-.128-.344-.187-.06-.03-.117-.065-.177-.096l-.088-.048c-.059-.032-.119-.063-.177-.096-.117-.066-.24-.121-.354-.192-.163-.102-.327-.199-.484-.31-.126-.089-.234-.199-.356-.294l-.085-.07-.069-.057a2.945 2.945 0 0 1-.086-.071l-.068-.056c-.029-.024-.059-.047-.087-.072-.104-.091-.22-.169-.32-.264a9.828 9.828 0 0 1-.366-.37c-.09-.095-.164-.203-.249-.302-.044-.05-.084-.103-.127-.154a5.21 5.21 0 0 1-.063-.077c-.04-.048-.081-.096-.12-.145-.086-.11-.185-.209-.266-.322a10.11 10.11 0 0 1-.32-.475c-.082-.13-.145-.272-.221-.406l-.053-.096-.042-.078-.053-.098-.041-.076c-.017-.034-.037-.065-.054-.099-.062-.125-.142-.239-.199-.367-.071-.158-.126-.322-.188-.485-.046-.121-.075-.25-.116-.373-.021-.063-.04-.128-.06-.192l-.03-.096c-.018-.06-.039-.118-.055-.178-.038-.135-.093-.263-.125-.401a10.329 10.329 0 0 1-.109-.562c-.025-.148-.027-.303-.046-.454-.005-.038-.007-.077-.012-.115l-.009-.088-.011-.111-.008-.082c-.003-.04-.009-.078-.012-.118-.009-.139-.038-.273-.042-.413-.002-.084-.025-.162-.025-.247 0-.093.025-.18.028-.273.004-.132.03-.258.039-.389.005-.067.014-.133.02-.2l.01-.099c.006-.063.011-.126.019-.188.017-.138.02-.279.042-.415.031-.19.054-.381.096-.567.034-.152.096-.292.137-.44.01-.036.023-.071.033-.107l.026-.083.033-.107.026-.083.034-.108c.044-.131.074-.268.123-.396.063-.163.121-.325.193-.483.054-.12.128-.227.187-.344.03-.06.065-.117.096-.176l.048-.088c.032-.059.063-.119.096-.177.066-.117.121-.24.192-.354.102-.163.199-.327.31-.483.089-.126.199-.234.294-.356l.071-.085.056-.068.071-.086.056-.067c.024-.029.047-.059.072-.087.091-.105.169-.22.265-.32.12-.126.243-.246.37-.366.095-.09.203-.163.302-.249.05-.044.103-.084.154-.127a5.21 5.21 0 0 1 .077-.063c.048-.04.095-.08.144-.119.11-.087.209-.185.323-.267.156-.112.313-.217.476-.32.13-.082.272-.144.406-.22l.096-.052.079-.043.098-.053.078-.042c.033-.017.065-.037.098-.053.125-.062.239-.142.367-.199.158-.071.322-.126.485-.188.122-.047.251-.075.375-.117.063-.021.126-.039.19-.059l.096-.03c.06-.018.12-.039.181-.056.134-.038.262-.092.399-.124.186-.043.372-.076.562-.109.15-.026.307-.028.46-.047l.109-.011.089-.009.111-.011.088-.009c.037-.003.074-.009.111-.011.14-.01.273-.038.414-.042.084-.002.163-.025.247-.025.093 0 .18.025.273.028.132.004.258.03.389.039.067.005.133.014.2.02l.098.01c.062.006.124.011.186.019.138.017.281.02.417.042.19.031.38.054.567.096.152.034.292.096.441.137.036.01.07.022.106.033l.085.026.107.033.083.026c.035.011.071.021.106.033.132.044.27.074.399.124.163.063.325.122.483.193.12.054.227.128.344.187.06.03.117.065.177.096l.088.048c.059.032.119.063.177.096.117.066.24.121.354.192.163.102.327.199.484.31.126.089.234.199.356.294l.085.07.069.057.086.071.068.056c.029.024.059.047.087.072.104.091.22.169.32.264.126.12.247.243.366.37.09.095.164.203.249.302.044.05.084.103.127.154l.063.077c.04.048.081.096.12.145.086.11.185.209.266.322.112.156.217.313.32.475.082.13.145.272.221.406l.053.097.042.078.053.098.042.076c.017.034.037.065.054.099.062.125.142.239.199.367.071.158.126.322.188.485.046.121.074.25.116.373.021.063.04.128.06.192l.03.096c.02.066.043.132.062.199.036.129.088.25.119.381.043.186.076.372.109.562.026.151.028.31.047.463l.011.106.009.088.011.111.009.084c.003.039.009.077.012.116.009.139.038.273.042.413.002.084.025.163.025.247 0 .093-.025.18-.028.273-.004.132-.03.258-.039.389-.005.067-.014.133-.02.2l-.01.099c-.006.063-.011.126-.019.188-.017.138-.02.279-.042.415-.031.19-.054.38-.096.566-.034.152-.096.292-.137.441-.01.036-.023.071-.033.107l-.026.083-.033.107-.026.084-.034.108c-.044.131-.074.268-.123.396-.063.163-.122.325-.193.483-.054.12-.128.227-.187.344-.03.06-.065.117-.096.176l-.048.088c-.032.059-.063.119-.096.177-.066.117-.121.24-.192.354-.102.163-.199.327-.31.483-.089.126-.199.234-.294.356l-.071.085-.056.068-.071.086-.056.067c-.024.029-.047.059-.072.087-.091.104-.169.22-.265.32-.12.126-.243.246-.37.366-.099.087-.207.16-.306.246zm10.981 9.893c.04.042.124.153.109.257-.062.064-.229-.078-.264-.113l-10.432-9.672c.098-.086.207-.159.301-.249l4.825 4.485-4.484-4.824c.096-.1.173-.216.264-.32l9.681 10.436zm-6.551-10.824c1.004.508 2.043 1.034 3.203 2.398 1.612 1.894 2.71 2.294 3.677 2.646.484.175.902.327 1.336.651.964.715 1.209 1.465 1.203 1.793-.003.091-.022.14-.016.164a1.497 1.497 0 0 1-.124-.229c-.164-.332-.437-.887-1.138-1.242-.313-.158-.707-.271-1.163-.403-1.181-.341-2.799-.808-4.176-2.455-.998-1.197-2.186-1.741-3.444-2.316-.693-.318-1.398-.657-2.086-1.104.091-.118.198-.222.284-.344 2.021 1.336 3.935 1.43 5.497 3.428-.959-1.942-3.107-2.125-5.215-3.852.072-.113.124-.237.192-.353.652.546 1.298.879 1.97 1.218zm11.79 2.903c.037.015.233.119.202.197-.031.081-.242.016-.288-.003L59.11 54.468c.058-.117.133-.224.187-.344l6.166 2.294-5.989-2.741c.05-.128.078-.265.123-.396l12.932 5.937zm-10.19-7.493c1.122.085 2.282.172 3.878.989 2.214 1.133 3.373 1.074 4.405 1.039.521-.023.961-.042 1.482.09 1.163.291 1.677.888 1.798 1.194.034.087.037.141.053.16-.05-.026-.14-.105-.208-.164-.295-.26-.741-.651-1.522-.711-.36-.023-.763.019-1.231.073-1.231.133-2.902.321-4.793-.67-1.383-.722-2.688-.77-4.071-.822-.762-.028-1.541-.072-2.347-.221.04-.144.099-.28.133-.427 2.376.459 4.179-.184 6.385 1.062-1.629-1.428-3.683-.774-6.292-1.562.026-.146.026-.298.045-.446.801.244 1.544.36 2.285.416zm11.998-1.618l-14.214.534c.008-.131.036-.256.039-.388l6.581-.24-6.578-.24c-.003-.141-.033-.274-.042-.413l14.22.535c.062 0 .198.022.26.105 0 .085-.22.107-.266.107z" style="fill:rgb(144, 52, 16);animation-play-state:paused" ></path>
<path fill="#903410" d="M55.729 48.494c-.055-.086-.164-.189-.281-.301a2.752 2.752 0 0 0-.834-.548c-.12-.051-.261-.069-.396-.105-.073-.02-.153-.029-.231-.043-.04-.007-.077-.016-.117-.022-.039-.005-.073-.017-.113-.021-.088-.008-.155-.046-.247-.046h.001l-.032.002c-.092.001-.154.011-.233.016-.323.019-.575.061-.761.14l-.019.007c-.025.011-.044.028-.068.04a1.803 1.803 0 0 0-.272.167c-.094.071-.187.15-.294.238l-.009.005c-.202.166-.348.23-.467.271-.023.008-.048.029-.068.035-.062.017-.09.03-.127.041-.026.008-.077.015-.092.029-.026.026-.012.073-.006.116.009.064.044.09.107.094.005 0 .007.004.012.004.015-.001.02.022.038.013l.002.001.001-.001c.032-.016.098-.055.143-.079.09-.048.2-.12.342-.216.047-.031.103-.076.155-.114.046-.034.087-.061.137-.101.05-.039.082-.055.137-.1.045-.038.09-.035.136-.066.248-.168.497-.255.745-.281.133-.014.266-.027.399-.028.031 0 .063-.006.094-.006.025 0 .041.012.065.013.084.003.149.034.229.044.08.011.155.027.23.045.071.016.15.02.217.042.407.132.73.318.978.513.127.1.254.203.339.275.104.088.167.128.209.123.004 0 .018.015.022.013.003-.002-.009-.017-.007-.02.021-.024-.003-.094-.064-.189z" style="fill:rgb(144, 52, 16);animation-play-state:paused" ></path>
<path d="M56.256 47.864h.001l-.003-.002z" fill="#903410" style="fill:rgb(144, 52, 16);animation-play-state:paused" ></path>
<path fill="#903410" d="M55.706 47.238a4.248 4.248 0 0 0-.358-.312 3.373 3.373 0 0 0-.186-.141c-.048-.035-.095-.078-.143-.109-.015-.01-.029-.024-.044-.033-.041-.026-.082-.055-.123-.079-.062-.036-.127-.055-.19-.086-.125-.063-.25-.126-.376-.172a3.246 3.246 0 0 0-.984-.192 3.46 3.46 0 0 0-.353.012c-.071.005-.142-.002-.213.008l-.078.01c-.052.008-.102.028-.153.039-.084.017-.167.04-.25.063-.07.019-.142.03-.212.053-.082.028-.162.063-.243.096-.171.07-.342.143-.507.237-.066.038-.128.086-.193.128-.066.042-.129.089-.194.135-.07.049-.142.092-.209.145-.028.022-.059.038-.087.061-.035.095-.05.195-.08.292l-.009.034a4.097 4.097 0 0 0-.052.19l-.005.02c-.023.093-.059.183-.076.277-.004.019-.012.038-.016.057v.022c-.015.089.011.182.001.272-.003.028.003.056 0 .084v.01c-.001.016.002.033 0 .049-.004.051.003.102.001.153v.065.056.155c0 .039-.001.078.001.118v.139c.003.043-.003.085.001.128.003.034-.003.068.001.103.003.03-.003.06 0 .091.003.028-.003.056.001.084v.016c.003.021-.003.042 0 .064.002.014-.002.028 0 .042v.001c.002.014-.002.027 0 .041.008.044.025.088.034.133.002.009.008.019.01.028v.001c.002.009.008.019.01.028.008.039.032.077.041.116.002.01.008.02.01.03v.001c.002.01.008.02.01.029.014.055.043.11.058.166.004.013.01.026.013.038v.001c.005.018.013.035.019.053l.003.009c.01.035.025.069.036.103.021.066.046.132.069.198l.04.114.007.021.003.009.001.002.003.01.008.023.005.016c.016.041.026.082.043.123.007.016.01.033.017.049l.002.006.007.019c.01.023.014.047.024.07.009.02.012.041.021.061.005.011.006.021.011.032.005.011.006.023.012.034.022.048.027.096.05.144.009.017.009.035.018.052l.002.007c.01.02.011.041.021.061.037-.037.093-.046.148-.074l.009-.004.02-.01c.048-.021.096-.064.128-.064-.03-.042-.034-.082-.062-.124-.014-.021-.017-.04-.031-.061-.011-.016-.014-.032-.025-.049-.008-.012-.011-.024-.019-.037-.01-.016-.014-.032-.024-.048-.006-.009-.008-.018-.014-.028-.01-.017-.015-.033-.025-.049-.01-.017-.016-.035-.026-.052-.025-.042-.04-.084-.063-.126l-.006-.011a.069.069 0 0 1-.007-.015l-.013-.025-.042-.083-.033-.066c-.004-.008-.009-.016-.012-.025-.025-.054-.058-.108-.081-.161v-.001l-.01-.02c-.024-.058-.066-.117-.087-.174-.015-.04-.048-.081-.061-.121-.003-.007-.009-.015-.011-.022V50c-.005-.015-.018-.031-.023-.046-.001-.004-.004-.008-.006-.011-.009-.03-.025-.06-.034-.09-.009-.031.002-.06-.006-.091v-.001c-.002-.007.001-.013-.001-.019-.012-.048 0-.092-.009-.14-.011-.054-.002-.105-.01-.158v-.001l-.001-.021c-.012-.088-.012-.174-.017-.261l-.003-.038-.001-.02c-.001-.035-.007-.07-.007-.105 0-.033-.008-.068-.006-.101.001-.027-.007-.056-.005-.083l-.001-.016c.001-.008-.002-.017-.002-.025.001-.008-.002-.016-.002-.024.001-.01-.003-.02-.002-.03l-.001-.011c.001-.011-.003-.023-.002-.034.001-.008-.003-.016-.002-.024.002-.017-.006-.034-.003-.051.003-.023-.009-.048-.005-.071l.001-.003c.001-.005.006-.01.007-.015.008-.046.048-.086.059-.131.003-.013.014-.025.017-.038.007-.029.03-.056.038-.085.016-.053.051-.103.069-.155.027-.076.066-.15.1-.225.048-.105.08-.214.141-.316.029-.048.035-.102.067-.15.034-.05.033-.108.07-.157.014-.013.035-.015.049-.028.056-.05.134-.064.194-.108l.005-.003a2.55 2.55 0 0 1 .533-.297c.073-.031.129-.09.205-.114.091-.03.185-.044.281-.065.069-.015.147-.005.219-.016.071-.01.144-.01.216-.016h.001a3.792 3.792 0 0 1 1.58.206c.031.01.061.016.092.027.04.014.08.019.121.035.068.026.134.029.201.058l.013.004c.079.034.154.077.233.116.149.074.288.194.435.284.26.16.527.293.773.505.011.009.023.013.034.022l-.024-.027a4.397 4.397 0 0 0-.514-.598z" style="fill:rgb(144, 52, 16);animation-play-state:paused" ></path>
<path fill="#903410" d="M55.091 49.17a7.56 7.56 0 0 1-1.025.307 5.004 5.004 0 0 1-.34.06c-.122.017-.247.036-.357.041a2.356 2.356 0 0 1-.749-.082l-.012-.004a1.757 1.757 0 0 1-.155-.05c-.052-.02-.115-.028-.163-.052l-.04-.022c-.083-.042-.113-.062-.179-.098-.088-.048-.175-.094-.239-.13-.032-.019-.093-.05-.12-.065-.014-.008-.043-.022-.055-.03-.006-.004-.008-.002-.014-.005-.076-.043-.122-.053-.172-.069-.026-.008-.067-.036-.091-.036l-.006-.002c-.062 0-.082.034-.052.095.004.008.002.013.008.022.012.017.035.039.056.061l.024.022c.038.037.068.07.135.121l.027.018c.042.031.115.075.17.112.042.028.081.055.131.086l.009.006c.04.025.059.041.103.068.022.013.053.017.076.03.059.033.134.05.199.078h.001c.18.077.371.134.587.166.058.009.12.007.18.012.079.006.154.016.236.016.228-.002.466-.046.714-.109.176-.045.348-.09.53-.17.209-.092.42-.219.633-.364.016-.011.032-.016.049-.028.052-.036.102-.049.154-.088h-.001c-.093.036-.164.051-.252.083z" style="fill:rgb(144, 52, 16);animation-play-state:paused" ></path>
<path fill="#903410" d="M49.617 52.275c-.049-.026-.119-.032-.16-.063l-.003-.001c-.008-.006-.024-.006-.031-.012a.824.824 0 0 1-.142-.141c-.068-.08-.147-.166-.172-.214l-.012-.015c-.001.009-.01.014-.011.023-.003.029-.027.049-.035.077a.42.42 0 0 1-.19.246c-.061.037-.121.074-.195.079-.01.001-.016.011-.026.011-.05 0-.082-.038-.127-.053l-.008-.003c-.062-.022-.132-.029-.178-.074-.049-.047-.059-.117-.083-.181-.009-.024-.024-.044-.029-.07-.005-.028-.032-.047-.032-.076 0-.025.035-.032.039-.056.009-.056.063-.082.09-.13.052-.093.068-.212.173-.249-.042.008-.064.046-.103.061a.678.678 0 0 0-.273.162c-.059.066-.074.152-.104.237-.027.075-.078.138-.078.221 0 .006.007.01.007.016.002.071.055.119.077.183.01.03.022.057.036.085.036.07.043.152.1.205.056.052.141.055.212.086.072.032.134.082.216.088.017.001.027.018.044.018.026 0 .04-.031.065-.034.076-.009.127-.069.194-.101.068-.032.141-.047.195-.101.02-.019.053-.015.07-.037.008-.01.025-.006.033-.017.058.043.127.053.191.081.035.015.068.032.104.044l.012.005c.059.018.108.049.165.059.087.016.157.019.228.023l.032.003c.028.001.07.009.094.009h.089l.009-.001.022-.002c.062-.002.147-.013.229-.023.054-.006.096-.011.154-.024l.007-.003c.052-.012.099-.045.151-.064.069-.025.138-.044.202-.085.016-.011.037-.01.053-.022.003.005.012.003.015.008.046.063.132.059.194.101a.632.632 0 0 0 .196.102c.033.009.053.041.087.045.026.003.04.034.066.034.061 0 .101-.049.158-.064a.696.696 0 0 0 .225-.091.578.578 0 0 0 .141-.129c.037-.048.048-.11.071-.168.014-.034.033-.062.041-.098.007-.031.033-.052.036-.085.001-.018.019-.028.019-.046 0-.068-.046-.119-.065-.182a.63.63 0 0 0-.234-.344c-.081-.061-.154-.135-.259-.154a.457.457 0 0 1 .294.424c0 .005.008.006.008.011 0 .069-.046.118-.073.176l-.006.014c-.031.061-.055.114-.108.155a.444.444 0 0 1-.224.093c-.008.001-.013.008-.022.009-.01.001-.016.011-.026.011-.044 0-.074-.034-.114-.046-.07-.021-.145-.03-.196-.079a.46.46 0 0 1-.117-.246c-.005-.024-.028-.039-.029-.064-.004.009-.027.03-.033.041l-.009.011c-.034.06-.1.14-.183.227-.048.05-.101.071-.166.117-.021.015-.055.017-.077.03l-.01.004c-.035.021-.08.029-.12.047l-.024.009c-.038.016-.072.033-.114.045-.079.023-.121.08-.214.084-.015-.001-.02-.012-.034-.013-.011-.001-.015-.009-.026-.01-.111-.012-.177-.067-.266-.104-.031-.013-.063-.021-.091-.036-.004-.006-.009-.007-.012-.009z" style="fill:rgb(144, 52, 16);animation-play-state:paused" ></path>
<path fill="#903410" d="M48.693 53.794c.01-.006.02-.004.03-.009.068-.035.131-.044.196-.06.013-.003.027-.01.04-.012.053-.011.106-.031.157-.033.107-.002.21.009.306.033.032.008.06.018.091.027l.099.031c.069.022.134.036.195.053.063.018.127.038.181.038h.011c.058 0 .126-.021.194-.04.06-.017.126-.032.194-.054l.076-.023c.039-.012.075-.022.116-.032.097-.023.199-.037.306-.033.041.002.084.021.126.029.023.004.047.015.07.022.065.018.129.023.197.061.006.003.01.002.016.005.419.24.701.455.987.62.079.045.158.106.24.139-.101-.068-.183-.145-.27-.22-.348-.296-.624-.617-.964-.794-.059-.031-.133-.038-.197-.059a1.1 1.1 0 0 0-.196-.045l-.009-.002c-.045-.005-.079-.029-.127-.029-.067 0-.172.022-.285.053l-.01.002c-.058.016-.122.045-.187.069-.061.023-.121.045-.184.074-.032.015-.06.021-.093.037h-.011c-.028-.014-.053-.02-.081-.033-.064-.029-.124-.051-.185-.074-.063-.023-.127-.054-.184-.071-.014-.004-.022-.003-.035-.007a1.23 1.23 0 0 0-.273-.051c-.047 0-.079.023-.122.028l-.021.005a.983.983 0 0 0-.176.041c-.064.02-.138.023-.196.053-.355.182-.634.523-1.001.83-.078.065-.147.133-.235.192.072-.029.14-.084.209-.122.291-.167.572-.391 1.005-.639z" style="fill:rgb(144, 52, 16);animation-play-state:paused" ></path>
<path fill="#903410" d="M52.277 54.551a6.102 6.102 0 0 0-.98-.218c-.016-.002-.024 0-.04-.002-.077-.009-.133-.007-.199-.01s-.14-.011-.198-.01l-.008-.001c-.077.001-.151.001-.215.008a3.105 3.105 0 0 0-.198.026l-.008.001c-.153.026-.292.053-.434.053h-.011c-.141 0-.268-.028-.42-.052-.009-.002-.023-.001-.033-.002-.048-.008-.125-.005-.18-.011a2.571 2.571 0 0 0-.21-.013h-.004c-.061-.002-.096-.013-.168-.01-.009 0-.022.003-.031.004-.057.003-.133.017-.197.023a5.748 5.748 0 0 0-1.01.21l-.092.003c-.054.001-.105.001-.165.006.061.006.098.019.152.027.396.058.634.165.797.295.125.1.224.207.318.312l.032.033c.036.039.074.078.116.114.025.021.06.038.088.058.026.018.051.036.08.052.037.02.079.038.123.055.105.042.237.073.396.094.121.016.245.031.409.031H50c.158 0 .276-.015.394-.03.17-.021.312-.053.421-.098.043-.018.084-.036.12-.056.03-.017.056-.035.082-.053.028-.019.062-.035.086-.056.044-.037.082-.078.119-.118l.031-.031c.089-.098.183-.198.298-.292.161-.133.399-.244.793-.305.062-.01.106-.025.177-.032-.075-.007-.124 0-.19-.003-.018-.002-.036-.002-.054-.002zm-.814.144c-.084.044-.16.092-.225.146-.034.028-.071.055-.102.084l-.104.095-.05.046c-.046.04-.101.075-.154.111l-.01.007a1.158 1.158 0 0 1-.414.168 2.007 2.007 0 0 1-.403.039h-.011c-.192 0-.291-.048-.419-.08-.143-.036-.292-.07-.386-.131l-.012-.009a1.611 1.611 0 0 1-.151-.114c-.016-.015-.038-.026-.054-.041-.031-.029-.076-.051-.107-.08-.028-.026-.068-.046-.097-.071-.075-.065-.146-.131-.249-.182-.172-.085-.397-.143-.742-.14.343-.07.618-.094.846-.087.049.002.084.011.13.015.07.006.137.013.199.023.034.006.078.006.109.013.028.006.064.007.09.014.039.009.069.02.106.03.067.019.132.037.193.056l.099.028c.142.041.282.073.442.073h.011c.156 0 .292-.03.431-.07l.122-.035c.062-.019.126-.037.193-.055.038-.01.068-.022.108-.031.026-.006.064-.006.091-.011.032-.007.074-.007.108-.013.062-.01.129-.018.2-.023.036-.003.064-.011.102-.012.245-.009.533.01.913.093-.373-.007-.625.05-.803.144z" style="fill:rgb(144, 52, 16);animation-play-state:paused" ></path>
<path fill="#903410" d="M50.992 56.079c-.056-.059-.127-.097-.192-.146a1.31 1.31 0 0 0-.41-.207c-.126-.038-.251-.078-.388-.078-.148 0-.283.041-.416.084a1.321 1.321 0 0 0-.384.203c-.066.049-.137.089-.193.149a1.327 1.327 0 0 0-.187.278 1.333 1.333 0 0 0-.192.66c.031-.131.141-.208.205-.321.058-.103.107-.209.187-.293.066-.07.112-.142.191-.197.113-.078.255-.092.387-.134.138-.045.253-.14.404-.14.14 0 .247.092.376.131.142.042.292.061.412.143.078.054.125.123.191.191.081.084.13.192.188.295.065.114.176.193.207.325 0-.245-.082-.463-.194-.663-.059-.099-.115-.199-.192-.28z" style="fill:rgb(144, 52, 16);animation-play-state:paused" ></path>
<path d="M43.833 47.864l.002-.002-.003.002z" fill="#903410" style="fill:rgb(144, 52, 16);animation-play-state:paused" ></path>
<path fill="#903410" d="M45.046 47.072c.067-.034.129-.086.196-.117.011-.005.022-.004.033-.009.06-.027.12-.028.181-.052.047-.019.093-.023.14-.04.025-.009.049-.013.074-.021a4.82 4.82 0 0 1 .449-.129 3.858 3.858 0 0 1 1.107-.103l.036.003c.061.004.122.006.182.013.071.009.147.002.217.015.073.014.156-.003.227.016.1.027.178.089.273.126.141.054.262.141.391.218.045.027.094.047.138.077.062.042.137.061.195.109.04.033.097.04.136.076.029.038.028.083.055.122.038.055.043.117.077.173.088.147.141.301.202.453a.047.047 0 0 0 .005.01c.031.078.08.152.103.231l.002.004c.005.017.017.032.022.048.016.06.065.113.077.173.001.005.005.009.006.014.003.016.018.03.02.046.001.005-.002.011-.001.017.003.016-.006.034-.003.05.002.015-.005.031-.003.046.004.028-.009.059-.006.087.001.008-.002.016-.002.024v.002c.001.013-.004.027-.003.04.002.021-.005.043-.004.064.001.027-.006.055-.005.082v.007l-.001.009-.003.037-.002.024c0 .02-.003.041-.004.061l-.006.088c-.004.075-.004.15-.014.226-.006.045-.001.089-.009.134v.004c-.004.023 0 .044-.004.067l-.001.011c-.011.053.003.103-.01.157-.003.011.001.021-.002.031v.001c-.003.011.001.021-.002.032-.013.047-.034.094-.049.141-.003.01-.012.02-.015.03v.001c-.003.01-.012.02-.015.03-.007.021-.024.042-.032.063-.004.011-.012.022-.016.032-.007.018-.021.038-.028.056-.014.036-.04.073-.054.109v.001l-.018.036c-.034.079-.081.16-.12.24a.12.12 0 0 0-.008.016l-.004.008c-.019.038-.036.075-.057.113l-.034.069-.022.044-.012.024-.011.021c-.004.006-.006.013-.009.019-.016.027-.024.053-.04.08l-.009.018c-.012.019-.017.038-.029.058l-.003.006-.007.015c-.025.04-.032.078-.059.117-.013.019-.015.037-.028.056-.015.022-.017.043-.033.066.009 0 .025.016.036.018.004.001.009.006.014.007.035.008.07.034.111.056.029.015.052.02.078.039.012.009.026.009.037.019.009.007.022.007.03.015l.003-.009c.004-.007.004-.014.007-.021.006-.012.007-.024.013-.036.033-.065.038-.13.068-.195l.001-.002.001-.001.005-.014c.027-.057.035-.115.06-.173l.002-.007.004-.013c.011-.026.016-.051.027-.077v-.001c.013-.03.02-.06.032-.09l.013-.036c.022-.056.039-.112.059-.168l.001-.002a.049.049 0 0 1 .004-.011l.006-.018c.019-.055.04-.11.058-.165l.017-.05.011-.031c.01-.034.026-.067.035-.1.004-.013.01-.026.013-.038v-.001c.003-.013.01-.025.013-.038.011-.041.033-.082.043-.123.002-.01.008-.02.01-.03v-.001c.002-.01.008-.02.01-.03.006-.028.023-.056.029-.084.002-.009.008-.019.01-.028v-.001c.002-.009.008-.019.01-.028.006-.03.026-.059.031-.089.002-.01.009-.021.011-.031v-.001c.002-.013 0-.026.002-.04.013-.073-.008-.144.001-.217v-.006c.003-.02-.002-.039 0-.059.003-.027-.002-.053 0-.08v-.002c.003-.026-.002-.051 0-.077v-.037c.004-.059-.002-.116.001-.175v-.028l.001-.106v-.008-.069-.001-.015c0-.063.004-.126.001-.189V48.591c-.003-.069.007-.14.001-.209v-.055c-.006-.055.008-.111.001-.166-.004-.029.005-.059 0-.088-.005-.034.007-.069.001-.103-.01-.06-.036-.117-.049-.177l-.009-.034-.004-.015c-.019-.084-.045-.166-.068-.249-.029-.103-.049-.207-.084-.308-.01-.029-.013-.059-.024-.088-.057-.046-.119-.079-.177-.123-.068-.051-.137-.097-.207-.144-.065-.044-.127-.094-.193-.134-.064-.039-.13-.074-.195-.109a4.271 4.271 0 0 0-.592-.275c-.045-.016-.092-.02-.138-.035-.087-.028-.176-.046-.264-.066-.077-.018-.152-.045-.229-.058-.051-.009-.101-.018-.152-.024-.023-.003-.046 0-.069-.002-.072-.008-.144-.005-.215-.008-.105-.004-.21-.017-.315-.011a3.373 3.373 0 0 0-1.368.393c-.063.033-.127.052-.189.089-.031.019-.061.05-.092.07-.022.015-.044.035-.066.05-.041.028-.08.062-.121.092-.062.046-.125.091-.186.142a4.485 4.485 0 0 0-.333.295c-.18.181-.359.372-.528.601l-.016.019c.008-.006.016-.009.023-.015.248-.214.517-.346.779-.508.141-.084.272-.195.412-.266z" style="fill:rgb(144, 52, 16);animation-play-state:paused" ></path>
<path fill="#903410" d="M45.828 47.782c.047-.015.104-.017.154-.03.073-.019.151-.031.229-.044.079-.013.147-.039.23-.045.047-.003.082-.025.131-.025l.008-.002c.145 0 .29.018.435.03.084.007.167 0 .251.017l.006.002c.146.031.291.131.437.213.082.046.164.051.245.119l.016.011c.115.095.195.145.29.213l.059.043c.124.086.231.164.319.214.073.041.147.084.196.109l.015.008.012.007.009.005c.008.004.01-.009.018-.006.073.022.121-.011.143-.073.018-.053.025-.116-.008-.15-.028-.029-.103-.039-.179-.057-.036-.009-.068-.035-.117-.052-.02-.007-.057-.037-.079-.046a1.56 1.56 0 0 1-.227-.132c-.06-.039-.091-.035-.161-.094l-.118-.095a3.456 3.456 0 0 0-.291-.216c-.025-.017-.053-.031-.078-.047-.059-.035-.121-.073-.189-.101a1.699 1.699 0 0 0-.358-.102 3.724 3.724 0 0 0-.438-.036c-.073-.003-.124-.014-.208-.014-.015 0-.025.007-.04.008-.104.002-.182.04-.28.053-.034.004-.065.013-.098.018a2.84 2.84 0 0 0-.133.025c-.076.016-.158.022-.23.043-.112.033-.227.051-.328.095a2.725 2.725 0 0 0-.836.553c-.136.132-.235.237-.284.328-.043.078-.087.161-.059.175.032.016.106-.043.193-.114.09-.073.218-.171.368-.29a3.12 3.12 0 0 1 .975-.518z" style="fill:rgb(144, 52, 16);animation-play-state:paused" ></path>
<path fill="#903410" d="M47.814 49.658l.035-.014c.037-.016.08-.027.115-.045.043-.022.1-.031.14-.055.022-.013.029-.02.05-.033l.034-.023.075-.049.012-.008c.06-.039.123-.079.171-.112.018-.012.048-.03.064-.042.044-.032.068-.055.1-.082l.001-.001a.59.59 0 0 0 .158-.171c.004-.009.008-.017.009-.024.006-.04-.012-.066-.063-.066-.026 0-.068.03-.096.039a.74.74 0 0 0-.078.031c-.027.013-.046.013-.08.032-.027.015-.068.032-.1.05l-.018.01c-.038.022-.112.06-.159.086l-.222.121c-.064.034-.083.049-.162.088-.006.003-.015.004-.022.007-.061.03-.139.043-.206.066l-.002.001c-.034.012-.068.024-.104.034-.237.066-.5.106-.826.083-.123-.009-.274-.045-.412-.068-.114-.02-.221-.031-.346-.061a8.26 8.26 0 0 1-.897-.286c-.084-.031-.15-.045-.238-.08h-.001c.049.037.097.049.146.084.133.094.264.156.397.228.082.045.164.104.245.141.136.062.266.113.399.155.283.09.557.148.817.157.072.003.135-.011.204-.014a2.408 2.408 0 0 0 .812-.16l.048-.019z" style="fill:rgb(144, 52, 16);animation-play-state:paused" ></path>
<metadata xmlns:d="https://loading.io/stock/" style="animation-play-state:paused" ><d:name style="animation-play-state:paused" >argentina</d:name>
<d:tags style="animation-play-state:paused" >argentina,national flag,country,nation symbol</d:tags>
<d:license style="animation-play-state:paused" >by</d:license>
<d:slug style="animation-play-state:paused" >lswj45</d:slug></metadata></g><!-- generated by https://loading.io/ --></svg>