<?xml version="1.0" encoding="utf-8"?><svg xml:space="preserve" viewBox="0 0 100 100" y="0" x="0" xmlns="http://www.w3.org/2000/svg" id="Layer_1" version="1.1" width="100px" height="100px" xmlns:xlink="http://www.w3.org/1999/xlink" style="width:100%;height:100%;background-size:initial;background-repeat-y:initial;background-repeat-x:initial;background-position-y:initial;background-position-x:initial;background-origin:initial;background-image:initial;background-color:rgb(255, 255, 255);background-clip:initial;background-attachment:initial;animation-play-state:paused" ><g class="ldl-scale" style="transform-origin:50% 50%;transform:rotate(0deg) scale(0.8, 0.8);animation-play-state:paused" ><g style="animation-play-state:paused" ><path fill="#f0af6b" d="M57.2 8.1c6.2 3.4 10.6 11.1 10.6 20C67.7 40.2 59.8 50 50 50c7.5 0 13.6-7.5 13.6-16.8 0-7.9-4.4-14.5-10.3-16.3-2-.6-3.3-2.5-3.3-4.6 0-3.7 3.9-6 7.2-4.2z" style="fill:rgb(240, 175, 107);animation-play-state:paused" ></path>
<path fill="#f0af6b" d="M12.3 50c2.1 0 4-1.3 4.6-3.3 1.8-5.9 8.4-10.3 16.3-10.3C42.5 36.4 50 42.5 50 50c0-9.8-9.8-17.7-21.9-17.7-8.9 0-16.6 4.3-20 10.6-1.8 3.2.5 7.1 4.2 7.1z" style="fill:rgb(240, 175, 107);animation-play-state:paused" ></path>
<path fill="#f0af6b" d="M50 87.7c0-2.1-1.3-4-3.3-4.6-5.9-1.8-10.3-8.4-10.3-16.3C36.4 57.5 42.5 50 50 50c-9.8 0-17.7 9.8-17.7 21.9 0 8.9 4.3 16.6 10.6 20 3.2 1.8 7.1-.5 7.1-4.2z" style="fill:rgb(240, 175, 107);animation-play-state:paused" ></path>
<path fill="#f0af6b" d="M87.7 50c-2.1 0-4 1.3-4.6 3.3-1.8 5.9-8.4 10.3-16.3 10.3C57.5 63.6 50 57.5 50 50c0 9.8 9.8 17.7 21.9 17.7 8.9 0 16.6-4.3 20-10.6 1.8-3.2-.5-7.1-4.2-7.1z" style="fill:rgb(240, 175, 107);animation-play-state:paused" ></path></g>
<g style="animation-play-state:paused" ><path fill="#d65a62" d="M31.1 17.3c1 1.8 3.1 2.8 5.2 2.3 6-1.4 13.2 2.2 17.1 9 4.6 8 3.1 17.6-3.4 21.4 8.5-4.9 10.5-17.3 4.4-27.8-4.5-7.9-12.3-12.4-19.5-12-3.5.1-5.5 4.1-3.8 7.1z" style="fill:rgb(214, 90, 98);animation-play-state:paused" ></path>
<path fill="#d65a62" d="M17.3 68.9c1.8-1 2.8-3.1 2.3-5.2-1.4-6 2.2-13.2 9-17.1 8-4.6 17.6-3.1 21.4 3.4-4.9-8.5-17.3-10.5-27.8-4.4-7.9 4.5-12.4 12.3-12 19.5.1 3.5 4.1 5.5 7.1 3.8z" style="fill:rgb(214, 90, 98);animation-play-state:paused" ></path>
<path fill="#d65a62" d="M68.9 82.7c-1-1.8-3.1-2.8-5.2-2.3-6 1.4-13.2-2.2-17.1-9C42 63.3 43.5 53.8 50 50c-8.5 4.9-10.5 17.3-4.4 27.8 4.5 7.9 12.3 12.4 19.5 12 3.5-.1 5.5-4.1 3.8-7.1z" style="fill:rgb(214, 90, 98);animation-play-state:paused" ></path>
<path fill="#d65a62" d="M82.7 31.1c-1.8 1-2.8 3.1-2.3 5.2 1.4 6-2.2 13.2-9 17.1C63.3 58 53.8 56.5 50 50c4.9 8.5 17.3 10.5 27.8 4.4 7.9-4.5 12.4-12.3 12-19.5-.1-3.5-4.1-5.5-7.1-3.8z" style="fill:rgb(214, 90, 98);animation-play-state:paused" ></path></g>
<g style="animation-play-state:paused" ><path fill="#ea7c60" d="M17.4 31.2c1.8 1 4.1.8 5.6-.6 4.5-4.2 12.5-4.7 19.3-.8 8 4.6 11.5 13.7 7.8 20.2 4.9-8.5.4-20.2-10.1-26.3-7.7-4.5-16.6-4.6-22.6-.9-3.2 2-3.2 6.5 0 8.4z" style="fill:rgb(234, 124, 96);animation-play-state:paused" ></path>
<path fill="#ea7c60" d="M31.2 82.6c1-1.8.8-4.1-.6-5.6-4.2-4.5-4.7-12.5-.8-19.3 4.6-8 13.7-11.5 20.2-7.8-8.5-4.9-20.2-.4-26.3 10.1-4.5 7.7-4.6 16.6-.9 22.6 2 3.2 6.5 3.2 8.4 0z" style="fill:rgb(234, 124, 96);animation-play-state:paused" ></path>
<path fill="#ea7c60" d="M82.6 68.8c-1.8-1-4.1-.8-5.6.6-4.5 4.2-12.5 4.7-19.3.8-8-4.6-11.5-13.7-7.8-20.2-4.9 8.5-.4 20.2 10.1 26.3 7.7 4.5 16.6 4.6 22.6.9 3.2-2 3.2-6.5 0-8.4z" style="fill:rgb(234, 124, 96);animation-play-state:paused" ></path>
<path fill="#ea7c60" d="M68.8 17.4c-1 1.8-.8 4.1.6 5.6 4.2 4.5 4.7 12.5.8 19.3-4.6 8-13.7 11.5-20.2 7.8 8.5 4.9 20.2.4 26.3-10.1 4.5-7.7 4.6-16.6.9-22.6-2-3.2-6.5-3.2-8.4 0z" style="fill:rgb(234, 124, 96);animation-play-state:paused" ></path></g>
<metadata xmlns:d="https://loading.io/stock/" style="animation-play-state:paused" ><d:name style="animation-play-state:paused" >vortex</d:name>


<d:tags style="animation-play-state:paused" >spinner,spiral,rotate,wheel,fan,vortex</d:tags>


<d:license style="animation-play-state:paused" >by</d:license>


<d:slug style="animation-play-state:paused" >ig6p11</d:slug></metadata></g><!-- generated by https://loading.io/ --></svg>