<?xml version="1.0" encoding="utf-8"?><svg xml:space="preserve" viewBox="0 0 100 100" y="0" x="0" xmlns:xlink="http://www.w3.org/1999/xlink" xmlns="http://www.w3.org/2000/svg" id="Layer_1" version="1.1" width="100px" height="100px" style="width:100%;height:100%;background-size:initial;background-repeat-y:initial;background-repeat-x:initial;background-position-y:initial;background-position-x:initial;background-origin:initial;background-image:initial;background-color:rgb(255, 255, 255);background-clip:initial;background-attachment:initial;animation-play-state:paused" ><g class="ldl-scale" style="transform-origin:50% 50%;transform:rotate(0deg) scale(0.8, 0.8);animation-play-state:paused" ><path fill="#00973d" d="M89.446 43.389C86.294 24.445 69.838 10 50 10S13.706 24.445 10.554 43.389L50 18.2l39.446 25.189z" style="fill:rgb(0, 151, 61);animation-play-state:paused" ></path>
<path fill="#00973d" d="M10.554 56.611C13.706 75.555 30.162 90 50 90s36.294-14.445 39.446-33.389L50 81.8 10.554 56.611z" style="fill:rgb(0, 151, 61);animation-play-state:paused" ></path>
<path fill="#ffe400" d="M50 18.2L10.554 43.389C10.196 45.54 10 47.747 10 50s.196 4.46.554 6.611L50 81.8l39.446-25.188C89.804 54.46 90 52.253 90 50s-.196-4.46-.554-6.611L50 18.2z" style="fill:rgb(255, 228, 0);animation-play-state:paused" ></path>
<circle fill="#112b6f" r="21" cy="50" cx="50" style="fill:rgb(17, 43, 111);animation-play-state:paused" ></circle>
<g style="animation-play-state:paused" ><defs style="animation-play-state:paused" ><circle r="21" cy="50" cx="50" id="SVGID_1_" style="animation-play-state:paused" ></circle></defs>
<clipPath id="SVGID_2_" style="animation-play-state:paused" ><use overflow="visible" xlink:href="#SVGID_1_" style="animation-play-state:paused" ></use></clipPath>
<path fill="#fff" clip-path="url(#SVGID_2_)" d="M-13 92c0-28.167 22.833-51 51-51s51 22.833 51 51h-3c0-26.51-21.49-48-48-48s-48 21.49-48 48h-3z" style="fill:rgb(255, 255, 255);animation-play-state:paused" ></path></g>
<g style="animation-play-state:paused" ><path transform="rotate(-7)" fill="#00973d" d="M32.861 42.759c-.067-.548-.522-.943-1.015-.883-.493.061-.839.554-.771 1.102.067.548.522.943 1.015.883.493-.06.838-.554.771-1.102zm-.893-.499c.68 0 .68 1.219 0 1.219s-.68-1.219 0-1.219z" style="fill:rgb(0, 151, 61);animation-play-state:paused" ></path></g>
<g transform="rotate(2)" style="animation-play-state:paused" ><path fill="#00973d" d="M38.793 43.498l1.799.063.013-.371-1.456-.051.018-.514 1.142.04.012-.343-1.142-.04.014-.4 1.371.048.013-.371-1.713-.06-.071 1.999z" id="E_5_" style="fill:rgb(0, 151, 61);animation-play-state:paused" ></path></g>
<g transform="rotate(5)" style="animation-play-state:paused" ><path fill="#00973d" d="M41.331 43.606l.341.03.12-1.366.279 1.401.313.027.518-1.331-.12 1.366.342.03.174-1.992-.498-.044-.518 1.331-.279-1.401-.498-.044-.174 1.993z" id="M_2_" style="fill:rgb(0, 151, 61);animation-play-state:paused" ></path></g>
<g transform="rotate(9.75)" style="animation-play-state:paused" ><path fill="#00973d" d="M45.474 44.073l1.478.254.058-.338-1.14-.196.077-.451.929.16.058-.338-.929-.16.053-.31 1.105.19.058-.338-1.443-.248-.304 1.775z" id="e_2_" style="fill:rgb(0, 151, 61);animation-play-state:paused" ></path></g>
<path fill="#00973d" d="M61.099 49.345l1.567.886.183-.323-1.268-.718.253-.448.995.563.169-.298-.995-.563.197-.348 1.194.675.183-.323-1.492-.844-.986 1.741z" id="E_4_" style="fill:rgb(0, 151, 61);animation-play-state:paused" ></path>
<path fill="#00973d" d="M64.017 50.324c-.107.169.001.357.243.51.241.154.405.148.474.04.219-.343-1.046-.844-.656-1.443.336-.514.911-.114 1.128.024.217.138.565.496.294.907l-.368-.234c.115-.181-.011-.354-.204-.477-.187-.119-.339-.173-.45.001-.186.279 1.053.806.673 1.403-.28.44-.768.248-1.093.041-.277-.177-.691-.593-.421-1.014l.38.242z" id="S_5_" style="fill:rgb(0, 151, 61);animation-play-state:paused" ></path>
<path fill="#00973d" d="M66.163 51.742c-.116.163-.017.356.215.522.233.166.397.169.472.064.236-.332-1-.898-.58-1.475.362-.496.916-.066 1.125.083.209.149.538.524.246.922l-.355-.253c.125-.174.007-.354-.179-.487-.18-.129-.329-.191-.449-.022-.201.269 1.009.86.599 1.436-.303.424-.779.207-1.093-.017-.268-.191-.659-.628-.368-1.034l.367.261z" id="S_4_" style="fill:rgb(0, 151, 61);animation-play-state:paused" ></path>
<path fill="#fff" d="M56.514 47.164l1.389.604.262.114.798-1.834-1.651-.718-.798 1.834zm1.361-.873l.825.359-.137.314-.262-.114-.563-.245.137-.314z" style="fill:rgb(255, 255, 255);animation-play-state:paused" ></path>
<path d="M33.713 45.95h-.654l-.202-.621-.202.621h-.654l.529.385-.202.622.529-.385.529.385-.202-.622.529-.384z" fill="#fff" style="fill:rgb(255, 255, 255);animation-play-state:paused" ></path>
<path d="M34.916 54.779l-.202-.622-.202.622h-.654l.529.384-.202.622.529-.384.529.384-.202-.622.529-.384z" fill="#fff" style="fill:rgb(255, 255, 255);animation-play-state:paused" ></path>
<path d="M32.311 56.711l-.168-.518-.168.518h-.545l.44.32-.168.519.441-.321.441.321-.169-.519.441-.32z" fill="#fff" style="fill:rgb(255, 255, 255);animation-play-state:paused" ></path>
<path d="M50.202 59.244L50 58.623l-.202.621h-.654l.529.385-.202.622.529-.385.529.385-.202-.622.529-.385z" fill="#fff" style="fill:rgb(255, 255, 255);animation-play-state:paused" ></path>
<path d="M41.791 60.753l-.202-.621-.202.621h-.654l.529.385-.202.622.529-.385.529.385-.202-.622.529-.385z" fill="#fff" style="fill:rgb(255, 255, 255);animation-play-state:paused" ></path>
<path d="M64.384 57.462l-.202.622.529-.384.529.384-.202-.622.529-.384h-.654l-.202-.622-.202.622h-.654z" fill="#fff" style="fill:rgb(255, 255, 255);animation-play-state:paused" ></path>
<path d="M56.447 63.9l-.17-.522-.17.522h-.549l.444.323-.169.523.444-.323.445.323-.17-.523.444-.323z" fill="#fff" style="fill:rgb(255, 255, 255);animation-play-state:paused" ></path>
<path d="M60.484 62.839l-.17.522h-.549l.444.323-.17.522.445-.323.444.323-.17-.522.445-.323h-.549z" fill="#fff" style="fill:rgb(255, 255, 255);animation-play-state:paused" ></path>
<path d="M64.475 60.663l-.17-.522-.17.522h-.549l.444.323-.17.522.445-.323.444.323-.17-.522.445-.323z" fill="#fff" style="fill:rgb(255, 255, 255);animation-play-state:paused" ></path>
<path d="M65.737 59.025l-.17-.523-.17.523h-.549l.444.322-.17.523.445-.323.444.323-.17-.523.445-.322z" fill="#fff" style="fill:rgb(255, 255, 255);animation-play-state:paused" ></path>
<path d="M52.597 55.05l-.17-.522-.17.522h-.549l.445.323-.17.522.444-.323.445.323-.17-.522.444-.323z" fill="#fff" style="fill:rgb(255, 255, 255);animation-play-state:paused" ></path>
<path d="M49.725 53.537l-.169.523.444-.323.445.323-.17-.523.444-.322h-.549l-.17-.523-.17.523h-.549z" fill="#fff" style="fill:rgb(255, 255, 255);animation-play-state:paused" ></path>
<path d="M56.138 44.058l.445-.323.444.323-.17-.523.445-.322h-.549l-.17-.523-.17.523h-.549l.444.322z" fill="#fff" style="fill:rgb(255, 255, 255);animation-play-state:paused" ></path>
<path d="M42.013 50.104l-.165.507h-.534l.432.314-.165.508.432-.314.432.314-.165-.508.432-.314h-.534z" fill="#fff" style="fill:rgb(255, 255, 255);animation-play-state:paused" ></path>
<path d="M67.878 57.661l.366-.266h-.453l-.14-.43-.14.43h-.452l.366.266-.14.43.366-.266.366.266z" fill="#fff" style="fill:rgb(255, 255, 255);animation-play-state:paused" ></path>
<path d="M55.75 49.188l.367.265-.14-.43.366-.266h-.453l-.14-.43-.139.43h-.453l.366.266-.14.43z" fill="#fff" style="fill:rgb(255, 255, 255);animation-play-state:paused" ></path>
<path d="M60.204 61.641l-.14.431.366-.266.366.266-.14-.431.366-.266h-.452l-.14-.43-.14.43h-.452z" fill="#fff" style="fill:rgb(255, 255, 255);animation-play-state:paused" ></path>
<path d="M62.764 61.751l-.14-.43-.14.43h-.452l.366.266-.14.43.366-.266.366.266-.14-.43.366-.266z" fill="#fff" style="fill:rgb(255, 255, 255);animation-play-state:paused" ></path>
<path d="M60.674 65.554l-.14-.43-.14.43h-.453l.366.266-.139.431.366-.266.366.266-.14-.431.366-.266z" fill="#fff" style="fill:rgb(255, 255, 255);animation-play-state:paused" ></path>
<path d="M58.235 62.072l-.14-.43-.14.43h-.453l.366.266-.139.431.366-.266.366.266-.14-.431.366-.266z" fill="#fff" style="fill:rgb(255, 255, 255);animation-play-state:paused" ></path>
<path d="M54.763 61.595l-.139-.43-.14.43h-.453l.366.266-.14.431.366-.266.367.266-.14-.431.366-.266z" fill="#fff" style="fill:rgb(255, 255, 255);animation-play-state:paused" ></path>
<path d="M39.287 56.883l-.152-.468-.153.468h-.492l.398.29-.152.468.399-.289.398.289-.152-.468.398-.29z" fill="#fff" style="fill:rgb(255, 255, 255);animation-play-state:paused" ></path>
<path d="M38.63 59.081l-.14-.431-.14.431h-.453l.367.266-.14.43.366-.266.366.266-.14-.43.366-.266z" fill="#fff" style="fill:rgb(255, 255, 255);animation-play-state:paused" ></path>
<path d="M48.017 55.106l-.139-.43-.14.43h-.453l.366.266-.139.43.366-.266.366.266-.14-.43.366-.266z" fill="#fff" style="fill:rgb(255, 255, 255);animation-play-state:paused" ></path>
<path d="M36.839 53.684l-.085-.262-.085.262h-.275l.223.162-.085.261.222-.161.223.161-.085-.261.223-.162z" fill="#fff" style="fill:rgb(255, 255, 255);animation-play-state:paused" ></path>
<path d="M48.929 56.816l.222.162-.085-.262.223-.162h-.275l-.085-.262-.085.262h-.276l.223.162-.085.262z" fill="#fff" style="fill:rgb(255, 255, 255);animation-play-state:paused" ></path>
<path d="M50.052 66.339l-.065-.2-.065.2h-.21l.17.123-.065.199.17-.123.169.123-.064-.199.169-.123z" fill="#fff" style="fill:rgb(255, 255, 255);animation-play-state:paused" ></path>
<path fill="#00973d" d="M69.711 53.724c.254-.49.102-1.073-.339-1.302-.441-.229-1.005-.016-1.259.474s-.102 1.073.339 1.302c.441.228 1.005.016 1.259-.474zm-.455-.917c.561.384-.127 1.39-.688 1.006-.562-.384.127-1.389.688-1.006z" style="fill:rgb(0, 151, 61);animation-play-state:paused" ></path>
<path fill="#00973d" d="M37.884 41.88c-.22-.355-.665-.372-.665-.372l-1 .016.035 2s.793 0 1.004-.02.458-.141.62-.354.16-.465.159-.619c-.002-.156.023-.367-.153-.651zm-.816 1.263l-.449.002-.022-1.257c.414-.005.428-.005.588-.005.297.005.422.227.484.37.022.16.024.224.029.362a.584.584 0 0 1-.188.388c-.205.138-.309.14-.442.14z" style="fill:rgb(0, 151, 61);animation-play-state:paused" ></path>
<path fill="#00973d" d="M35.152 42.746s.209-.177.263-.43a.582.582 0 0 0-.169-.519c-.066-.059-.206-.2-.412-.192-.206.008-1.225.079-1.225.079l.111 1.997.37-.026-.052-.741.643-.045.155-.011s.199.326.218.527c.013.118.011.219.011.219h.361s.009-.356-.094-.569-.18-.289-.18-.289zm-.225-.311c-.078.065-.297.068-.297.068l-.618.041-.036-.513c.094.001.586-.041.594-.041.099-.003.211-.013.211-.013s.081.003.161.073c.015.01.083.07.081.172-.002.101-.06.193-.096.213z" style="fill:rgb(0, 151, 61);animation-play-state:paused" ></path>
<g style="animation-play-state:paused" ><path transform="rotate(-7)" fill="#00973d" d="M56.276 45.787c.076-.547-.262-1.046-.755-1.114-.492-.068-.953.32-1.028.867-.076.547.262 1.046.755 1.114.492.068.952-.32 1.028-.867zm-.735-.711c.657.174.344 1.352-.313 1.178-.657-.175-.344-1.353.313-1.178z" style="fill:rgb(0, 151, 61);animation-play-state:paused" ></path></g>
<path fill="#00973d" d="M53.402 45.011s.255-.099.389-.321a.582.582 0 0 0 .01-.546c-.043-.078-.129-.256-.327-.316-.197-.06-1.184-.326-1.184-.326l-.548 1.924.359.097.193-.717.623.168.15.04s.082.373.034.569a2.14 2.14 0 0 1-.061.211l.341.118s.125-.333.098-.568c-.029-.235-.077-.333-.077-.333zm-.111-.367c-.095.036-.303-.033-.303-.033l-.598-.164.134-.497c.088.031.567.153.575.156.095.03.203.057.203.057s.076.029.129.122a.212.212 0 0 1 .02.189c-.034.095-.12.163-.16.17z" style="fill:rgb(0, 151, 61);animation-play-state:paused" ></path>
<path fill="#00973d" d="M60.666 47.955s.263-.077.415-.286a.58.58 0 0 0 .056-.543c-.037-.081-.107-.266-.299-.343-.192-.076-1.152-.425-1.152-.425l-.709 1.87.349.127.254-.698.606.22.146.053s.05.379-.014.57c-.036.114-.079.205-.079.205l.33.147s.153-.321.146-.558c-.009-.238-.049-.339-.049-.339zm-.079-.376c-.098.028-.299-.059-.299-.059l-.582-.214.175-.483c.085.039.552.201.56.204.092.037.198.074.198.074s.073.035.118.132a.21.21 0 0 1 .004.19c-.043.092-.133.153-.174.156z" style="fill:rgb(0, 151, 61);animation-play-state:paused" ></path>
<path fill="#00973d" d="M50.942 44.344s.253-.105.381-.33a.584.584 0 0 0-.003-.546c-.045-.077-.135-.253-.334-.308a94.764 94.764 0 0 0-1.191-.297l-.502 1.936.361.088.176-.722.627.153.151.037m.214-.376c-.094.038-.303-.026-.303-.026l-.602-.149.122-.5c.089.029.57.14.579.142.096.027.205.052.205.052s.076.027.132.119a.21.21 0 0 1 .025.188c-.035.096-.118.166-.158.174z" style="fill:rgb(0, 151, 61);animation-play-state:paused" ></path>
<g style="animation-play-state:paused" ><path transform="rotate(-7)" fill="#00973d" d="M58.381 46.871c-.051-.023-.105-.039-.159-.056-.156.295-.503.505-.811.294-.561-.384.127-1.389.688-1.006a.46.46 0 0 1 .206.359c.085.036.177.053.262.092l.107.05c.029-.368-.138-.72-.458-.886-.441-.229-1.005-.016-1.259.474s-.102 1.073.339 1.302c.441.229 1.005.016 1.259-.474.01-.019.018-.039.027-.059l-.201-.09z" style="fill:rgb(0, 151, 61);animation-play-state:paused" ></path></g>
<metadata xmlns:d="https://loading.io/stock/" style="animation-play-state:paused" ><d:name style="animation-play-state:paused" >brazil</d:name>
<d:tags style="animation-play-state:paused" >brazil,national flag,country,nation symbol</d:tags>
<d:license style="animation-play-state:paused" >by</d:license>
<d:slug style="animation-play-state:paused" >g60067</d:slug></metadata></g><!-- generated by https://loading.io/ --></svg>