<?xml version="1.0" encoding="utf-8"?><svg xml:space="preserve" viewBox="0 0 100 100" y="0" x="0" xmlns="http://www.w3.org/2000/svg" id="Layer_1" version="1.1" width="100px" height="100px" xmlns:xlink="http://www.w3.org/1999/xlink" style="width:100%;height:100%;background-size:initial;background-repeat-y:initial;background-repeat-x:initial;background-position-y:initial;background-position-x:initial;background-origin:initial;background-image:initial;background-color:rgb(255, 255, 255);background-clip:initial;background-attachment:initial;animation-play-state:paused" ><g class="ldl-scale" style="transform-origin:50% 50%;transform:rotate(0deg) scale(0.8, 0.8);animation-play-state:paused" ><path fill="#e60a11" d="M10 50c0 14.803 8.047 27.718 20 34.635v-69.27C18.047 22.282 10 35.197 10 50z" style="fill:rgb(230, 10, 17);animation-play-state:paused" ></path>
<path fill="#e60a11" d="M70 15.365v69.271C81.953 77.718 90 64.803 90 50c0-14.803-8.047-27.718-20-34.635z" style="fill:rgb(230, 10, 17);animation-play-state:paused" ></path>
<path fill="#f7f7f7" d="M50 10a39.798 39.798 0 0 0-20 5.365v69.271C35.885 88.041 42.712 90 50 90s14.115-1.959 20-5.365v-69.27A39.798 39.798 0 0 0 50 10z" style="fill:rgb(247, 247, 247);animation-play-state:paused" ></path>
<path fill="#e60a11" d="M49.999 33.829l-2.729 5.09c-.31.553-.864.502-1.419.193l-1.976-1.023 1.473 7.818c.31 1.428-.684 1.428-1.174.811l-3.448-3.86-.56 1.96c-.065.257-.348.528-.774.463l-4.36-.917 1.145 4.163c.245.926.436 1.31-.247 1.554l-1.554.73 7.505 6.096a.982.982 0 0 1 .341 1.021l-.657 2.156c2.584-.298 4.9-.746 7.485-1.022.228-.024.61.352.609.617l-.342 7.898h1.256l-.198-7.881c-.002-.265.345-.658.573-.634 2.586.276 4.901.724 7.485 1.022l-.657-2.156a.982.982 0 0 1 .341-1.021l7.505-6.096-1.554-.73c-.684-.244-.493-.628-.247-1.554l1.145-4.163-4.36.917c-.426.064-.71-.206-.774-.463l-.56-1.96-3.448 3.86c-.49.618-1.484.618-1.174-.811l1.473-7.818-1.976 1.023c-.555.309-1.11.36-1.419-.193" style="fill:rgb(230, 10, 17);animation-play-state:paused" ></path>
<metadata xmlns:d="https://loading.io/stock/" style="animation-play-state:paused" ><d:name style="animation-play-state:paused" >canada</d:name>
<d:tags style="animation-play-state:paused" >canada,national flag,country,nation symbol</d:tags>
<d:license style="animation-play-state:paused" >by</d:license>
<d:slug style="animation-play-state:paused" >lh8grg</d:slug></metadata></g><!-- generated by https://loading.io/ --></svg>