<?xml version="1.0" encoding="utf-8"?><svg xml:space="preserve" viewBox="0 0 100 100" y="0" x="0" xmlns:xlink="http://www.w3.org/1999/xlink" xmlns="http://www.w3.org/2000/svg" id="圖層_1" version="1.1" width="100px" height="100px" style="width:100%;height:100%;background-size:initial;background-repeat-y:initial;background-repeat-x:initial;background-position-y:initial;background-position-x:initial;background-origin:initial;background-image:initial;background-color:rgb(255, 255, 255);background-clip:initial;background-attachment:initial;animation-play-state:paused" ><g class="ldl-scale" style="transform-origin:50% 50%;transform:rotate(0deg) scale(0.8, 0.8);animation-play-state:paused" ><g style="animation-play-state:paused" ><defs style="animation-play-state:paused" ><circle r="40" cy="50" cx="50" id="SVGID_59_" style="animation-play-state:paused" ></circle></defs>
<clipPath id="SVGID_2_" style="animation-play-state:paused" ><use overflow="visible" xlink:href="#SVGID_59_" style="animation-play-state:paused" ></use></clipPath>
<path d="M10 10h80v80H10z" fill="#de2910" clip-path="url(#SVGID_2_)" style="fill:rgb(222, 41, 16);animation-play-state:paused" ></path>
<path d="M42.522 44.204l-2.694-8.292-2.695 8.292h-8.718l7.053 5.124-2.694 8.292 7.054-5.125 7.053 5.125-2.694-8.292 7.053-5.124z" fill="#ffde00" clip-path="url(#SVGID_2_)" style="fill:rgb(255, 222, 0);animation-play-state:paused" ></path>
<path d="M59.23 37.318l1.495 2.492.255-2.895 2.832-.652-2.674-1.137.255-2.895-1.908 2.192-2.675-1.137 1.496 2.492-1.908 2.192z" fill="#ffde00" clip-path="url(#SVGID_2_)" style="fill:rgb(255, 222, 0);animation-play-state:paused" ></path>
<path d="M66.731 44.976l.411 2.877 1.359-2.57 2.863.499-2.024-2.086 1.359-2.569-2.609 1.28-2.024-2.086.411 2.877-2.609 1.279z" fill="#ffde00" clip-path="url(#SVGID_2_)" style="fill:rgb(255, 222, 0);animation-play-state:paused" ></path>
<path d="M69.297 56.332l2.288-1.792-2.904.104-.997-2.73-.798 2.795-2.904.104 2.41 1.623-.798 2.794 2.288-1.791 2.411 1.622z" fill="#ffde00" clip-path="url(#SVGID_2_)" style="fill:rgb(255, 222, 0);animation-play-state:paused" ></path>
<path d="M61.104 63.072l.135-2.903-1.816 2.269-2.719-1.025 1.597 2.428-1.815 2.269 2.803-.769 1.597 2.428.135-2.903 2.802-.769z" fill="#ffde00" clip-path="url(#SVGID_2_)" style="fill:rgb(255, 222, 0);animation-play-state:paused" ></path></g>
<metadata xmlns:d="https://loading.io/stock/" style="animation-play-state:paused" ><d:name style="animation-play-state:paused" >the people's republic of china</d:name>
<d:tags style="animation-play-state:paused" >the people's republic of china,national flag,country,nation symbol</d:tags>
<d:license style="animation-play-state:paused" >by</d:license>
<d:slug style="animation-play-state:paused" >7hxyxl</d:slug></metadata></g><!-- generated by https://loading.io/ --></svg>