<?xml version="1.0" encoding="utf-8"?><svg xml:space="preserve" viewBox="0 0 100 100" y="0px" x="0px" xmlns:xlink="http://www.w3.org/1999/xlink" xmlns="http://www.w3.org/2000/svg" id="圖層_1" version="1.1" width="100px" height="100px" style="width:100%;height:100%;background-size:initial;background-repeat-y:initial;background-repeat-x:initial;background-position-y:initial;background-position-x:initial;background-origin:initial;background-image:initial;background-color:rgb(255, 255, 255);background-clip:initial;background-attachment:initial;animation-play-state:paused" ><g class="ldl-scale" style="transform-origin:50% 50%;transform:rotate(0deg) scale(0.8, 0.8);animation-play-state:paused" ><circle r="37.5" cy="50" cx="50" stroke-miterlimit="10" stroke-width="3.5" stroke="#333435" fill="#F7B26A" style="stroke:rgb(51, 52, 53);fill:rgb(247, 178, 106);animation-play-state:paused" ></circle>
<path d="M51.3,26.9l6,12.2c0.2,0.4,0.6,0.8,1.1,0.8 l13.5,2c1.2,0.2,1.7,1.7,0.8,2.6L63.1,54c-0.4,0.3-0.5,0.8-0.4,1.3l2.3,13.4c0.2,1.2-1.1,2.2-2.2,1.6l-12-6.3c-0.4-0.2-1-0.2-1.4,0 l-12,6.3c-1.1,0.6-2.4-0.4-2.2-1.6l2.3-13.4c0.1-0.5-0.1-1-0.4-1.3l-9.7-9.5c-0.9-0.9-0.4-2.4,0.8-2.6l13.5-2 c0.5-0.1,0.9-0.4,1.1-0.8l6-12.2C49.2,25.8,50.8,25.8,51.3,26.9z" stroke-miterlimit="10" stroke-width="3.5" stroke="#333435" fill="#F5E169" style="stroke:rgb(51, 52, 53);fill:rgb(245, 225, 105);animation-play-state:paused" ></path>
<metadata xmlns:d="https://loading.io/stock/" style="animation-play-state:paused" ><d:name style="animation-play-state:paused" >star</d:name>


<d:tags style="animation-play-state:paused" >star,medal,coin,badge</d:tags>


<d:license style="animation-play-state:paused" >by</d:license>


<d:slug style="animation-play-state:paused" >r9brlu</d:slug></metadata></g><!-- generated by https://loading.io/ --></svg>