<?xml version="1.0" encoding="utf-8"?><svg xml:space="preserve" viewBox="0 0 100 100" y="0" x="0" xmlns:xlink="http://www.w3.org/1999/xlink" xmlns="http://www.w3.org/2000/svg" id="Layer_1" version="1.1" width="100px" height="100px" style="width:100%;height:100%;background-size:initial;background-repeat-y:initial;background-repeat-x:initial;background-position-y:initial;background-position-x:initial;background-origin:initial;background-image:initial;background-color:rgb(255, 255, 255);background-clip:initial;background-attachment:initial;animation-play-state:paused" ><g class="ldl-scale" style="transform-origin:50% 50%;transform:rotate(0deg) scale(0.8, 0.8);animation-play-state:paused" ><g style="animation-play-state:paused" ><defs style="animation-play-state:paused" ><circle r="40" cy="50" cx="50" id="SVGID_17_" style="animation-play-state:paused" ></circle></defs>
<clipPath id="SVGID_2_" style="animation-play-state:paused" ><use overflow="visible" xlink:href="#SVGID_17_" style="animation-play-state:paused" ></use></clipPath>
<path d="M10 10h80v80H10z" fill="#e21d25" clip-path="url(#SVGID_2_)" style="fill:rgb(226, 29, 37);animation-play-state:paused" ></path>
<g clip-path="url(#SVGID_2_)" style="animation-play-state:paused" ><path fill="#fff" d="M48.038 66c-8.837 0-16-7.163-16-16s7.163-16 16-16c4.73 0 8.979 2.053 11.908 5.315C56.402 33.717 50.154 30 43.038 30c-11.046 0-20 8.954-20 20s8.954 20 20 20c7.116 0 13.364-3.717 16.908-9.315A15.957 15.957 0 0 1 48.038 66z" style="fill:rgb(255, 255, 255);animation-play-state:paused" ></path>
<path d="M72.691 50l4.271-5.878-6.91 2.245-4.271-5.878v7.266L58.872 50l6.909 2.245v7.266l4.271-5.878 6.91 2.245z" fill="#fff" style="fill:rgb(255, 255, 255);animation-play-state:paused" ></path></g></g>
<metadata xmlns:d="https://loading.io/stock/" style="animation-play-state:paused" ><d:name style="animation-play-state:paused" >turkey</d:name>
<d:tags style="animation-play-state:paused" >turkey,national flag,country,nation symbol</d:tags>
<d:license style="animation-play-state:paused" >by</d:license>
<d:slug style="animation-play-state:paused" >mnorh3</d:slug></metadata></g><!-- generated by https://loading.io/ --></svg>