<?xml version="1.0" encoding="utf-8"?><svg xml:space="preserve" viewBox="0 0 100 100" y="0" x="0" xmlns:xlink="http://www.w3.org/1999/xlink" xmlns="http://www.w3.org/2000/svg" id="Layer_1" version="1.1" width="100px" height="100px" style="width:100%;height:100%;background-size:initial;background-repeat-y:initial;background-repeat-x:initial;background-position-y:initial;background-position-x:initial;background-origin:initial;background-image:initial;background-color:rgb(255, 255, 255);background-clip:initial;background-attachment:initial;animation-play-state:paused" ><g class="ldl-scale" style="transform-origin:50% 50%;transform:rotate(0deg) scale(0.8, 0.8);animation-play-state:paused" ><g style="animation-play-state:paused" ><defs style="animation-play-state:paused" ><circle r="40" cy="50" cx="50" id="SVGID_5_" style="animation-play-state:paused" ></circle></defs>
<clipPath id="SVGID_2_" style="animation-play-state:paused" ><use overflow="visible" xlink:href="#SVGID_5_" style="animation-play-state:paused" ></use></clipPath>
<g clip-path="url(#SVGID_2_)" style="animation-play-state:paused" ><path fill="#c13d39" d="M46.002 10h7.997c0 10.436.002 20.872-.007 31.308-.001.575.076.706.356.705C66.226 41.998 78.104 42 89.983 42v16c-11.878 0-23.757.002-35.635-.013-.281 0-.357.13-.356.705.01 10.436.007 20.872.007 31.308h-7.997c0-10.436-.002-20.872.007-31.308.001-.575-.076-.706-.356-.705-11.879.015-23.757.013-35.636.013V42c11.878 0 23.757-.002 35.635.013.281 0 .357-.13.356-.705-.009-10.436-.006-20.872-.006-31.308z" style="fill:rgb(193, 61, 57);animation-play-state:paused" ></path>
<path fill="#fff" d="M46.002 10c0 10.436-.002 20.872.007 31.308.001.575-.076.706-.356.705C33.774 41.998 21.896 42 10.017 42v-5.375c.041.01.082.029.123.029 5.766.001 11.532.002 17.299-.002.051 0 .128.079.15-.118-.045-.051-.089-.104-.135-.15-5.745-5.749-11.49-11.497-17.236-17.243-.063-.063-.134-.095-.202-.141v-3c.104.091.211.174.312.275a63179.12 63179.12 0 0 1 20.041 20.057c.198.198.393.336.622.334 1.769-.013 3.539-.006 5.308-.01.075 0 .159.047.25-.099-.111-.118-.198-.217-.288-.307-8.297-8.299-16.594-16.596-24.89-24.902-.434-.435-.885-.81-1.293-1.348h8.934c.087.105.172.222.263.313L43.01 34.06c.32.32.321.32.321-.391l-.001-23.11c0-.186-.01-.373-.015-.559h2.687z" style="fill:rgb(255, 255, 255);animation-play-state:paused" ></path>
<path fill="#fff" d="M53.998 90c0-10.436.002-20.872-.007-31.308-.001-.575.076-.706.356-.705 11.879.015 23.757.013 35.636.013v5.375c-.072-.01-.145-.029-.217-.03-5.704-.001-11.409-.002-17.113.002-.077 0-.162-.063-.251.093.087.096.163.187.242.266 5.703 5.707 11.407 11.413 17.111 17.117.073.073.152.119.229.177v3c-.094-.084-.19-.161-.283-.254a75994.52 75994.52 0 0 1-20.065-20.081c-.198-.198-.394-.333-.622-.331-1.769.013-3.539.006-5.308.01-.075 0-.159-.049-.251.1.109.116.196.214.286.304 8.631 8.634 17.262 17.267 25.893 25.905.099.099.217.15.288.347h-8.934c-.061-.187-.17-.226-.259-.315a53218.849 53218.849 0 0 0-23.752-23.763c-.09-.09-.172-.235-.296-.215-.004.165-.01.329-.01.493v23.304c0 .166.01.331.015.497L53.998 90z" style="fill:rgb(255, 255, 255);animation-play-state:paused" ></path>
<path fill="#fff" d="M89.983 42c-11.878 0-23.757-.002-35.635.013-.281 0-.357-.13-.356-.705.01-10.436.007-20.872.007-31.308h2.686c-.005.124-.015.248-.015.372v23.491c0 .143.007.285.013.5.121-.118.221-.214.321-.313 7.231-7.231 14.463-14.459 21.691-21.699.767-.769 1.552-1.471 2.292-2.351h2.999c-.109.121-.215.251-.326.362-8.615 8.621-17.231 17.24-25.845 25.864-.101.101-.23.144-.303.406.065.011.106.025.148.025 1.822.001 3.644-.002 5.466.006.185.001.342-.126.502-.286 8.679-8.685 17.36-17.367 26.038-26.054.089-.089.2-.125.256-.323.129.112.058.338.059.5.005 2.833.004 5.667.004 8.5-.076.058-.156.104-.229.177-5.704 5.704-11.408 11.41-17.111 17.117-.079.079-.155.17-.232.255l.008.107h.295l16.957-.001c.104 0 .207-.019.311-.03L89.983 42z" style="fill:rgb(255, 255, 255);animation-play-state:paused" ></path>
<path fill="#fff" d="M10.017 58c11.878 0 23.757.002 35.635-.013.281 0 .357.13.356.705-.009 10.436-.006 20.872-.006 31.308h-2.686c.005-.186.015-.373.015-.559l.001-23.11c0-.711-.001-.711-.321-.391-7.252 7.256-14.504 14.511-21.755 21.772-.75.751-1.515 1.446-2.241 2.289h-2.936c.032-.215.14-.223.217-.301 1.904-1.911 3.809-3.817 5.714-5.722 6.756-6.759 13.513-13.517 20.267-20.281.071-.071.188-.072.198-.354h-.316c-1.707 0-3.415.007-5.122-.007-.258-.002-.485.11-.715.341-8.651 8.663-17.304 17.317-25.955 25.978-.099.099-.218.142-.285.348-.129-.112-.058-.338-.059-.5-.005-2.833-.004-5.667-.004-8.5.077-.056.157-.098.229-.17 5.718-5.719 11.435-11.44 17.151-17.164.068-.068.154-.094.21-.322h-.294l-17.018.001c-.093 0-.186.019-.279.03L10.017 58z" style="fill:rgb(255, 255, 255);animation-play-state:paused" ></path>
<path fill="#243775" d="M56.685 90c-.005-.166-.015-.331-.015-.497V66.199c0-.164.007-.327.01-.493.124-.02.206.125.296.215 7.918 7.917 15.835 15.838 23.752 23.763.09.09.198.128.259.315L56.685 90z" style="fill:rgb(36, 55, 117);animation-play-state:paused" ></path>
<path fill="#243775" d="M80.987 10c-.739.879-1.524 1.582-2.292 2.351-7.229 7.241-14.46 14.468-21.691 21.699-.1.1-.2.196-.321.313-.006-.215-.013-.357-.013-.5V10.372c0-.124.01-.248.015-.372h24.302z" style="fill:rgb(36, 55, 117);animation-play-state:paused" ></path>
<path fill="#243775" d="M19.013 90c.727-.843 1.491-1.538 2.241-2.289 7.251-7.261 14.503-14.515 21.755-21.772.32-.32.321-.32.321.391l-.001 23.11c0 .186-.01.373-.015.559L19.013 90z" style="fill:rgb(36, 55, 117);animation-play-state:paused" ></path>
<path fill="#243775" d="M43.315 10c.005.186.015.373.015.559l.001 23.11c0 .71-.001.711-.321.391-7.912-7.915-15.823-15.83-23.734-23.747-.091-.091-.175-.208-.263-.313h24.302z" style="fill:rgb(36, 55, 117);animation-play-state:paused" ></path>
<path fill="#c13d39" d="M10.08 90c.067-.206.187-.249.285-.348 8.652-8.66 17.304-17.315 25.955-25.978.23-.23.457-.343.715-.341 1.707.014 3.415.007 5.122.007h.316c-.01.282-.127.283-.198.354a48453.505 48453.505 0 0 1-20.267 20.281c-1.905 1.906-3.81 3.811-5.714 5.722-.078.078-.185.086-.217.301C14.078 90 12.079 90 10.08 90z" style="fill:rgb(193, 61, 57);animation-play-state:paused" ></path>
<path fill="#c13d39" d="M89.92 10c-.056.198-.167.234-.256.323-8.679 8.687-17.359 17.369-26.038 26.054-.16.16-.316.287-.502.286-1.822-.008-3.644-.005-5.466-.006-.041 0-.082-.014-.148-.025.073-.262.202-.305.303-.406 8.614-8.624 17.23-17.243 25.845-25.864.111-.111.218-.241.326-.362h5.936z" style="fill:rgb(193, 61, 57);animation-play-state:paused" ></path>
<path fill="#243775" d="M89.983 36.625c-.104.01-.207.029-.311.03l-16.957.001h-.295l-.008-.107c.077-.085.153-.176.232-.255 5.703-5.707 11.407-11.413 17.111-17.117.073-.073.152-.119.229-.177l-.001 17.625z" style="fill:rgb(36, 55, 117);animation-play-state:paused" ></path>
<path fill="#243775" d="M10.017 19c.067.046.139.078.202.141 5.746 5.746 11.491 11.494 17.236 17.243.046.046.089.099.135.15-.022.196-.1.118-.15.118-5.766.004-11.532.004-17.299.002-.041 0-.082-.019-.123-.029L10.017 19z" style="fill:rgb(36, 55, 117);animation-play-state:paused" ></path>
<path fill="#243775" d="M10.017 63.375c.093-.01.186-.029.279-.03l17.018-.001h.294c-.056.228-.142.254-.21.322A69412.297 69412.297 0 0 1 10.247 80.83c-.072.073-.153.114-.229.17l-.001-17.625z" style="fill:rgb(36, 55, 117);animation-play-state:paused" ></path>
<path fill="#243775" d="M89.983 81c-.076-.058-.156-.104-.229-.177-5.704-5.704-11.408-11.41-17.111-17.117-.079-.079-.155-.17-.242-.266.089-.155.175-.092.251-.093 5.704-.004 11.409-.003 17.113-.002.072 0 .145.019.217.03L89.983 81z" style="fill:rgb(36, 55, 117);animation-play-state:paused" ></path>
<path fill="#c13d39" d="M89.92 90c-.071-.198-.188-.248-.288-.347-8.63-8.638-17.262-17.271-25.893-25.905-.09-.09-.177-.188-.286-.304.092-.15.176-.1.251-.1 1.769-.003 3.539.003 5.308-.01.229-.002.424.133.622.331a75994.52 75994.52 0 0 0 20.065 20.081c.092.092.188.169.283.254 0 1.875.002 3.75-.004 5.625.001.119.076.325-.058.375z" style="fill:rgb(193, 61, 57);animation-play-state:paused" ></path>
<path fill="#c13d39" d="M10.08 10c.408.538.858.914 1.293 1.348 8.295 8.305 16.593 16.602 24.89 24.902.09.09.178.189.288.307-.091.146-.175.099-.25.099-1.769.003-3.539-.003-5.308.01-.229.002-.424-.136-.622-.334-6.68-6.688-13.36-13.373-20.041-20.057-.102-.102-.208-.184-.312-.275 0-1.877-.002-3.753.004-5.63 0-.117-.077-.323.058-.37z" style="fill:rgb(193, 61, 57);animation-play-state:paused" ></path></g></g>
<metadata xmlns:d="https://loading.io/stock/" style="animation-play-state:paused" ><d:name style="animation-play-state:paused" >the united kingdom</d:name>
<d:tags style="animation-play-state:paused" >the united kingdom,national flag,country,nation symbol</d:tags>
<d:license style="animation-play-state:paused" >by</d:license>
<d:slug style="animation-play-state:paused" >gfd5we</d:slug></metadata></g><!-- generated by https://loading.io/ --></svg>