<?xml version="1.0" encoding="utf-8"?><svg xml:space="preserve" viewBox="0 0 100 100" y="0" x="0" xmlns:xlink="http://www.w3.org/1999/xlink" xmlns="http://www.w3.org/2000/svg" id="Layer_1" version="1.1" width="100px" height="100px" style="width:100%;height:100%;background-size:initial;background-repeat-y:initial;background-repeat-x:initial;background-position-y:initial;background-position-x:initial;background-origin:initial;background-image:initial;background-color:rgb(255, 255, 255);background-clip:initial;background-attachment:initial;animation-play-state:paused" ><g class="ldl-scale" style="transform-origin:50% 50%;transform:rotate(0deg) scale(0.8, 0.8);animation-play-state:paused" ><g style="animation-play-state:paused" ><defs style="animation-play-state:paused" ><circle r="40" cy="50" cx="50" id="SVGID_7_" style="animation-play-state:paused" ></circle></defs>
<clipPath id="SVGID_2_" style="animation-play-state:paused" ><use overflow="visible" xlink:href="#SVGID_7_" style="animation-play-state:paused" ></use></clipPath>
<path d="M10 71.538h80v6.154H10z" fill="#b22335" clip-path="url(#SVGID_2_)" style="fill:rgb(178, 35, 53);animation-play-state:paused" ></path>
<path d="M10 46.923h80v6.154H10z" fill="#b22335" clip-path="url(#SVGID_2_)" style="fill:rgb(178, 35, 53);animation-play-state:paused" ></path>
<path d="M10 83.846h80V90H10z" fill="#b22335" clip-path="url(#SVGID_2_)" style="fill:rgb(178, 35, 53);animation-play-state:paused" ></path>
<path d="M10 59.231h80v6.154H10z" fill="#b22335" clip-path="url(#SVGID_2_)" style="fill:rgb(178, 35, 53);animation-play-state:paused" ></path>
<path d="M10 10h80v6.154H10z" fill="#b22335" clip-path="url(#SVGID_2_)" style="fill:rgb(178, 35, 53);animation-play-state:paused" ></path>
<path d="M10 34.615h80v6.154H10z" fill="#b22335" clip-path="url(#SVGID_2_)" style="fill:rgb(178, 35, 53);animation-play-state:paused" ></path>
<path d="M10 22.308h80v6.154H10z" fill="#b22335" clip-path="url(#SVGID_2_)" style="fill:rgb(178, 35, 53);animation-play-state:paused" ></path>
<g clip-path="url(#SVGID_2_)" style="animation-play-state:paused" ><path d="M10 16.154v6.154h80v-6.154z" fill="#fff" style="fill:rgb(255, 255, 255);animation-play-state:paused" ></path>
<path d="M10 31.538v3.077h80V28.462H10z" fill="#fff" style="fill:rgb(255, 255, 255);animation-play-state:paused" ></path>
<path d="M10 43.846v3.077h80v-6.154H10z" fill="#fff" style="fill:rgb(255, 255, 255);animation-play-state:paused" ></path>
<path d="M10 80.769v3.077h80v-6.154H10z" fill="#fff" style="fill:rgb(255, 255, 255);animation-play-state:paused" ></path>
<path d="M10 68.462v3.076h80V65.385H10z" fill="#fff" style="fill:rgb(255, 255, 255);animation-play-state:paused" ></path>
<path d="M10 56.154v3.077h80v-6.154H10z" fill="#fff" style="fill:rgb(255, 255, 255);animation-play-state:paused" ></path></g>
<path d="M10 10h60.8v43.077H10z" fill="#3d3b6e" clip-path="url(#SVGID_2_)" style="fill:rgb(61, 59, 110);animation-play-state:paused" ></path>
<g clip-path="url(#SVGID_2_)" style="animation-play-state:paused" ><path d="M15.067 11.846l-.553 1.701h-1.788l1.446 1.051-.552 1.701 1.447-1.051 1.447 1.051-.553-1.701 1.447-1.051h-1.789z" fill="#fff" style="fill:rgb(255, 255, 255);animation-play-state:paused" ></path>
<path d="M15.067 20.462l-.553 1.7h-1.788l1.446 1.052-.552 1.701 1.447-1.052 1.447 1.052-.553-1.701 1.447-1.052h-1.789z" fill="#fff" style="fill:rgb(255, 255, 255);animation-play-state:paused" ></path>
<path d="M15.067 29.077l-.553 1.701h-1.788l1.446 1.051-.552 1.701 1.447-1.051 1.447 1.051-.553-1.701 1.447-1.051h-1.789z" fill="#fff" style="fill:rgb(255, 255, 255);animation-play-state:paused" ></path>
<path d="M15.067 37.692l-.553 1.701h-1.788l1.446 1.051-.552 1.701 1.447-1.051 1.447 1.051-.553-1.701 1.447-1.051h-1.789z" fill="#fff" style="fill:rgb(255, 255, 255);animation-play-state:paused" ></path>
<path d="M15.619 48.009l-.552-1.701-.553 1.701h-1.788l1.446 1.051-.552 1.701 1.447-1.052 1.447 1.052-.553-1.701 1.447-1.051z" fill="#fff" style="fill:rgb(255, 255, 255);animation-play-state:paused" ></path>
<path d="M20.133 16.154l-.552 1.701h-1.789l1.447 1.051-.553 1.701 1.447-1.051 1.447 1.051-.552-1.701 1.446-1.051h-1.788z" fill="#fff" style="fill:rgb(255, 255, 255);animation-play-state:paused" ></path>
<path d="M20.133 24.769l-.552 1.701h-1.789l1.447 1.051-.553 1.701 1.447-1.051 1.447 1.051-.552-1.701 1.446-1.051h-1.788z" fill="#fff" style="fill:rgb(255, 255, 255);animation-play-state:paused" ></path>
<path d="M20.133 33.385l-.552 1.7h-1.789l1.447 1.052-.553 1.701 1.447-1.052 1.447 1.052-.552-1.701 1.446-1.052h-1.788z" fill="#fff" style="fill:rgb(255, 255, 255);animation-play-state:paused" ></path>
<path d="M20.686 43.701L20.133 42l-.552 1.701h-1.789l1.447 1.051-.553 1.701 1.447-1.051 1.447 1.051-.552-1.701 1.446-1.051z" fill="#fff" style="fill:rgb(255, 255, 255);animation-play-state:paused" ></path>
<path d="M25.2 11.846l-.553 1.701h-1.788l1.447 1.051-.553 1.701 1.447-1.051 1.447 1.051-.553-1.701 1.447-1.051h-1.788z" fill="#fff" style="fill:rgb(255, 255, 255);animation-play-state:paused" ></path>
<path d="M25.2 20.462l-.553 1.7h-1.788l1.447 1.052-.553 1.701 1.447-1.052 1.447 1.052-.553-1.701 1.447-1.052h-1.788z" fill="#fff" style="fill:rgb(255, 255, 255);animation-play-state:paused" ></path>
<path d="M25.2 29.077l-.553 1.701h-1.788l1.447 1.051-.553 1.701 1.447-1.051 1.447 1.051-.553-1.701 1.447-1.051h-1.788z" fill="#fff" style="fill:rgb(255, 255, 255);animation-play-state:paused" ></path>
<path d="M25.2 37.692l-.553 1.701h-1.788l1.447 1.051-.553 1.701 1.447-1.051 1.447 1.051-.553-1.701 1.447-1.051h-1.788z" fill="#fff" style="fill:rgb(255, 255, 255);animation-play-state:paused" ></path>
<path d="M25.753 48.009l-.553-1.701-.553 1.701h-1.788l1.447 1.051-.553 1.701 1.447-1.052 1.447 1.052-.553-1.701 1.447-1.051z" fill="#fff" style="fill:rgb(255, 255, 255);animation-play-state:paused" ></path>
<path d="M30.267 16.154l-.553 1.701h-1.788l1.446 1.051-.552 1.701 1.447-1.051 1.447 1.051-.553-1.701 1.447-1.051h-1.789z" fill="#fff" style="fill:rgb(255, 255, 255);animation-play-state:paused" ></path>
<path d="M30.267 24.769l-.553 1.701h-1.788l1.446 1.051-.552 1.701 1.447-1.051 1.447 1.051-.553-1.701 1.447-1.051h-1.789z" fill="#fff" style="fill:rgb(255, 255, 255);animation-play-state:paused" ></path>
<path d="M30.267 33.385l-.553 1.7h-1.788l1.446 1.052-.552 1.701 1.447-1.052 1.447 1.052-.553-1.701 1.447-1.052h-1.789z" fill="#fff" style="fill:rgb(255, 255, 255);animation-play-state:paused" ></path>
<path d="M30.819 43.701L30.267 42l-.553 1.701h-1.788l1.446 1.051-.552 1.701 1.447-1.051 1.447 1.051-.553-1.701 1.447-1.051z" fill="#fff" style="fill:rgb(255, 255, 255);animation-play-state:paused" ></path>
<path d="M35.333 11.846l-.552 1.701h-1.789l1.447 1.051-.553 1.701 1.447-1.051 1.447 1.051-.552-1.701 1.446-1.051h-1.788z" fill="#fff" style="fill:rgb(255, 255, 255);animation-play-state:paused" ></path>
<path d="M35.333 20.462l-.552 1.7h-1.789l1.447 1.052-.553 1.701 1.447-1.052 1.447 1.052-.552-1.701 1.446-1.052h-1.788z" fill="#fff" style="fill:rgb(255, 255, 255);animation-play-state:paused" ></path>
<path d="M35.333 29.077l-.552 1.701h-1.789l1.447 1.051-.553 1.701 1.447-1.051 1.447 1.051-.552-1.701 1.446-1.051h-1.788z" fill="#fff" style="fill:rgb(255, 255, 255);animation-play-state:paused" ></path>
<path d="M35.333 37.692l-.552 1.701h-1.789l1.447 1.051-.553 1.701 1.447-1.051 1.447 1.051-.552-1.701 1.446-1.051h-1.788z" fill="#fff" style="fill:rgb(255, 255, 255);animation-play-state:paused" ></path>
<path d="M35.886 48.009l-.553-1.701-.552 1.701h-1.789l1.447 1.051-.553 1.701 1.447-1.052 1.447 1.052-.552-1.701 1.446-1.051z" fill="#fff" style="fill:rgb(255, 255, 255);animation-play-state:paused" ></path>
<path d="M40.4 16.154l-.553 1.701h-1.788l1.447 1.051-.553 1.701 1.447-1.051 1.447 1.051-.553-1.701 1.447-1.051h-1.788z" fill="#fff" style="fill:rgb(255, 255, 255);animation-play-state:paused" ></path>
<path d="M40.4 24.769l-.553 1.701h-1.788l1.447 1.051-.553 1.701 1.447-1.051 1.447 1.051-.553-1.701 1.447-1.051h-1.788z" fill="#fff" style="fill:rgb(255, 255, 255);animation-play-state:paused" ></path>
<path d="M40.4 33.385l-.553 1.7h-1.788l1.447 1.052-.553 1.701 1.447-1.052 1.447 1.052-.553-1.701 1.447-1.052h-1.788z" fill="#fff" style="fill:rgb(255, 255, 255);animation-play-state:paused" ></path>
<path d="M40.953 43.701L40.4 42l-.553 1.701h-1.788l1.447 1.051-.553 1.701 1.447-1.051 1.447 1.051-.553-1.701 1.447-1.051z" fill="#fff" style="fill:rgb(255, 255, 255);animation-play-state:paused" ></path>
<path d="M45.467 11.846l-.553 1.701h-1.788l1.446 1.051-.552 1.701 1.447-1.051 1.447 1.051-.553-1.701 1.447-1.051h-1.789z" fill="#fff" style="fill:rgb(255, 255, 255);animation-play-state:paused" ></path>
<path d="M45.467 20.462l-.553 1.7h-1.788l1.446 1.052-.552 1.701 1.447-1.052 1.447 1.052-.553-1.701 1.447-1.052h-1.789z" fill="#fff" style="fill:rgb(255, 255, 255);animation-play-state:paused" ></path>
<path d="M45.467 29.077l-.553 1.701h-1.788l1.446 1.051-.552 1.701 1.447-1.051 1.447 1.051-.553-1.701 1.447-1.051h-1.789z" fill="#fff" style="fill:rgb(255, 255, 255);animation-play-state:paused" ></path>
<path d="M45.467 37.692l-.553 1.701h-1.788l1.446 1.051-.552 1.701 1.447-1.051 1.447 1.051-.553-1.701 1.447-1.051h-1.789z" fill="#fff" style="fill:rgb(255, 255, 255);animation-play-state:paused" ></path>
<path d="M46.019 48.009l-.552-1.701-.553 1.701h-1.788l1.446 1.051-.552 1.701 1.447-1.052 1.447 1.052-.553-1.701 1.447-1.051z" fill="#fff" style="fill:rgb(255, 255, 255);animation-play-state:paused" ></path>
<path d="M50.533 16.154l-.552 1.701h-1.789l1.447 1.051-.553 1.701 1.447-1.051 1.447 1.051-.552-1.701 1.446-1.051h-1.788z" fill="#fff" style="fill:rgb(255, 255, 255);animation-play-state:paused" ></path>
<path d="M50.533 24.769l-.552 1.701h-1.789l1.447 1.051-.553 1.701 1.447-1.051 1.447 1.051-.552-1.701 1.446-1.051h-1.788z" fill="#fff" style="fill:rgb(255, 255, 255);animation-play-state:paused" ></path>
<path d="M50.533 33.385l-.552 1.7h-1.789l1.447 1.052-.553 1.701 1.447-1.052 1.447 1.052-.552-1.701 1.446-1.052h-1.788z" fill="#fff" style="fill:rgb(255, 255, 255);animation-play-state:paused" ></path>
<path d="M51.086 43.701L50.533 42l-.552 1.701h-1.789l1.447 1.051-.553 1.701 1.447-1.051 1.447 1.051-.552-1.701 1.446-1.051z" fill="#fff" style="fill:rgb(255, 255, 255);animation-play-state:paused" ></path>
<path d="M55.6 11.846l-.553 1.701h-1.788l1.447 1.051-.553 1.701 1.447-1.051 1.447 1.051-.553-1.701 1.447-1.051h-1.788z" fill="#fff" style="fill:rgb(255, 255, 255);animation-play-state:paused" ></path>
<path d="M55.6 20.462l-.553 1.7h-1.788l1.447 1.052-.553 1.701 1.447-1.052 1.447 1.052-.553-1.701 1.447-1.052h-1.788z" fill="#fff" style="fill:rgb(255, 255, 255);animation-play-state:paused" ></path>
<path d="M55.6 29.077l-.553 1.701h-1.788l1.447 1.051-.553 1.701 1.447-1.051 1.447 1.051-.553-1.701 1.447-1.051h-1.788z" fill="#fff" style="fill:rgb(255, 255, 255);animation-play-state:paused" ></path>
<path d="M55.6 37.692l-.553 1.701h-1.788l1.447 1.051-.553 1.701 1.447-1.051 1.447 1.051-.553-1.701 1.447-1.051h-1.788z" fill="#fff" style="fill:rgb(255, 255, 255);animation-play-state:paused" ></path>
<path d="M56.153 48.009l-.553-1.701-.553 1.701h-1.788l1.447 1.051-.553 1.701 1.447-1.052 1.447 1.052-.553-1.701 1.447-1.051z" fill="#fff" style="fill:rgb(255, 255, 255);animation-play-state:paused" ></path>
<path d="M60.667 16.154l-.553 1.701h-1.788l1.446 1.051-.552 1.701 1.447-1.051 1.447 1.051-.553-1.701 1.447-1.051h-1.789z" fill="#fff" style="fill:rgb(255, 255, 255);animation-play-state:paused" ></path>
<path d="M60.667 24.769l-.553 1.701h-1.788l1.446 1.051-.552 1.701 1.447-1.051 1.447 1.051-.553-1.701 1.447-1.051h-1.789z" fill="#fff" style="fill:rgb(255, 255, 255);animation-play-state:paused" ></path>
<path d="M60.667 33.385l-.553 1.7h-1.788l1.446 1.052-.552 1.701 1.447-1.052 1.447 1.052-.553-1.701 1.447-1.052h-1.789z" fill="#fff" style="fill:rgb(255, 255, 255);animation-play-state:paused" ></path>
<path d="M61.219 43.701L60.667 42l-.553 1.701h-1.788l1.446 1.051-.552 1.701 1.447-1.051 1.447 1.051-.553-1.701 1.447-1.051z" fill="#fff" style="fill:rgb(255, 255, 255);animation-play-state:paused" ></path>
<path d="M64.839 14.598l-.553 1.701 1.447-1.051 1.447 1.051-.552-1.701 1.446-1.051h-1.788l-.553-1.701-.552 1.701h-1.789z" fill="#fff" style="fill:rgb(255, 255, 255);animation-play-state:paused" ></path>
<path d="M65.733 20.462l-.552 1.7h-1.789l1.447 1.052-.553 1.701 1.447-1.052 1.447 1.052-.552-1.701 1.446-1.052h-1.788z" fill="#fff" style="fill:rgb(255, 255, 255);animation-play-state:paused" ></path>
<path d="M65.733 29.077l-.552 1.701h-1.789l1.447 1.051-.553 1.701 1.447-1.051 1.447 1.051-.552-1.701 1.446-1.051h-1.788z" fill="#fff" style="fill:rgb(255, 255, 255);animation-play-state:paused" ></path>
<path d="M65.733 37.692l-.552 1.701h-1.789l1.447 1.051-.553 1.701 1.447-1.051 1.447 1.051-.552-1.701 1.446-1.051h-1.788z" fill="#fff" style="fill:rgb(255, 255, 255);animation-play-state:paused" ></path>
<path d="M66.286 48.009l-.553-1.701-.552 1.701h-1.789l1.447 1.051-.553 1.701 1.447-1.052 1.447 1.052-.552-1.701 1.446-1.051z" fill="#fff" style="fill:rgb(255, 255, 255);animation-play-state:paused" ></path></g></g>
<metadata xmlns:d="https://loading.io/stock/" style="animation-play-state:paused" ><d:name style="animation-play-state:paused" >the united states</d:name>
<d:tags style="animation-play-state:paused" >the united states,national flag,country,nation symbol</d:tags>
<d:license style="animation-play-state:paused" >by</d:license>
<d:slug style="animation-play-state:paused" >dtw5w4</d:slug></metadata></g><!-- generated by https://loading.io/ --></svg>